%TF.GenerationSoftware,KiCad,Pcbnew,8.0.7*%
%TF.CreationDate,2025-03-12T15:38:42-05:00*%
%TF.ProjectId,YM3802-F-to-X,594d3338-3032-42d4-962d-746f2d582e6b,rev?*%
%TF.SameCoordinates,Original*%
%TF.FileFunction,Paste,Top*%
%TF.FilePolarity,Positive*%
%FSLAX46Y46*%
G04 Gerber Fmt 4.6, Leading zero omitted, Abs format (unit mm)*
G04 Created by KiCad (PCBNEW 8.0.7) date 2025-03-12 15:38:42*
%MOMM*%
%LPD*%
G01*
G04 APERTURE LIST*
G04 Aperture macros list*
%AMRoundRect*
0 Rectangle with rounded corners*
0 $1 Rounding radius*
0 $2 $3 $4 $5 $6 $7 $8 $9 X,Y pos of 4 corners*
0 Add a 4 corners polygon primitive as box body*
4,1,4,$2,$3,$4,$5,$6,$7,$8,$9,$2,$3,0*
0 Add four circle primitives for the rounded corners*
1,1,$1+$1,$2,$3*
1,1,$1+$1,$4,$5*
1,1,$1+$1,$6,$7*
1,1,$1+$1,$8,$9*
0 Add four rect primitives between the rounded corners*
20,1,$1+$1,$2,$3,$4,$5,0*
20,1,$1+$1,$4,$5,$6,$7,0*
20,1,$1+$1,$6,$7,$8,$9,0*
20,1,$1+$1,$8,$9,$2,$3,0*%
G04 Aperture macros list end*
%ADD10RoundRect,0.150000X-1.350000X-0.150000X1.350000X-0.150000X1.350000X0.150000X-1.350000X0.150000X0*%
%ADD11RoundRect,0.150000X-0.150000X-1.350000X0.150000X-1.350000X0.150000X1.350000X-0.150000X1.350000X0*%
%ADD12RoundRect,0.250000X0.475000X-0.337500X0.475000X0.337500X-0.475000X0.337500X-0.475000X-0.337500X0*%
G04 APERTURE END LIST*
D10*
%TO.C,U2*%
X132875000Y-106856000D03*
X132875000Y-107856000D03*
X132875000Y-108856000D03*
X132875000Y-109856000D03*
X132875000Y-110856000D03*
X132875000Y-111856000D03*
X132875000Y-112856000D03*
X132875000Y-113856000D03*
X132875000Y-114856000D03*
X132875000Y-115856000D03*
X132875000Y-116856000D03*
X132875000Y-117856000D03*
X132875000Y-118856000D03*
X132875000Y-119856000D03*
X132875000Y-120856000D03*
X132875000Y-121856000D03*
X132875000Y-122856000D03*
X132875000Y-123856000D03*
X132875000Y-124856000D03*
D11*
X135550000Y-127531000D03*
X136550000Y-127531000D03*
X137550000Y-127531000D03*
X138550000Y-127531000D03*
X139550000Y-127531000D03*
X140550000Y-127531000D03*
X141550000Y-127531000D03*
X142550000Y-127531000D03*
X143550000Y-127531000D03*
X144550000Y-127531000D03*
X145550000Y-127531000D03*
X146550000Y-127531000D03*
X147550000Y-127531000D03*
D10*
X150225000Y-124856000D03*
X150225000Y-123856000D03*
X150225000Y-122856000D03*
X150225000Y-121856000D03*
X150225000Y-120856000D03*
X150225000Y-119856000D03*
X150225000Y-118856000D03*
X150225000Y-117856000D03*
X150225000Y-116856000D03*
X150225000Y-115856000D03*
X150225000Y-114856000D03*
X150225000Y-113856000D03*
X150225000Y-112856000D03*
X150225000Y-111856000D03*
X150225000Y-110856000D03*
X150225000Y-109856000D03*
X150225000Y-108856000D03*
X150225000Y-107856000D03*
X150225000Y-106856000D03*
D11*
X147550000Y-104181000D03*
X146550000Y-104181000D03*
X145550000Y-104181000D03*
X144550000Y-104181000D03*
X143550000Y-104181000D03*
X142550000Y-104181000D03*
X141550000Y-104181000D03*
X140550000Y-104181000D03*
X139550000Y-104181000D03*
X138550000Y-104181000D03*
X137550000Y-104181000D03*
X136550000Y-104181000D03*
X135550000Y-104181000D03*
%TD*%
D12*
%TO.C,C1*%
X141100000Y-100137500D03*
X141100000Y-98062500D03*
%TD*%
M02*
