%TF.GenerationSoftware,KiCad,Pcbnew,8.0.7*%
%TF.CreationDate,2025-03-12T15:38:42-05:00*%
%TF.ProjectId,YM3802-F-to-X,594d3338-3032-42d4-962d-746f2d582e6b,rev?*%
%TF.SameCoordinates,Original*%
%TF.FileFunction,Copper,L1,Top*%
%TF.FilePolarity,Positive*%
%FSLAX46Y46*%
G04 Gerber Fmt 4.6, Leading zero omitted, Abs format (unit mm)*
G04 Created by KiCad (PCBNEW 8.0.7) date 2025-03-12 15:38:42*
%MOMM*%
%LPD*%
G01*
G04 APERTURE LIST*
G04 Aperture macros list*
%AMRoundRect*
0 Rectangle with rounded corners*
0 $1 Rounding radius*
0 $2 $3 $4 $5 $6 $7 $8 $9 X,Y pos of 4 corners*
0 Add a 4 corners polygon primitive as box body*
4,1,4,$2,$3,$4,$5,$6,$7,$8,$9,$2,$3,0*
0 Add four circle primitives for the rounded corners*
1,1,$1+$1,$2,$3*
1,1,$1+$1,$4,$5*
1,1,$1+$1,$6,$7*
1,1,$1+$1,$8,$9*
0 Add four rect primitives between the rounded corners*
20,1,$1+$1,$2,$3,$4,$5,0*
20,1,$1+$1,$4,$5,$6,$7,0*
20,1,$1+$1,$6,$7,$8,$9,0*
20,1,$1+$1,$8,$9,$2,$3,0*%
G04 Aperture macros list end*
%TA.AperFunction,SMDPad,CuDef*%
%ADD10RoundRect,0.150000X-1.350000X-0.150000X1.350000X-0.150000X1.350000X0.150000X-1.350000X0.150000X0*%
%TD*%
%TA.AperFunction,SMDPad,CuDef*%
%ADD11RoundRect,0.150000X-0.150000X-1.350000X0.150000X-1.350000X0.150000X1.350000X-0.150000X1.350000X0*%
%TD*%
%TA.AperFunction,SMDPad,CuDef*%
%ADD12RoundRect,0.250000X0.475000X-0.337500X0.475000X0.337500X-0.475000X0.337500X-0.475000X-0.337500X0*%
%TD*%
%TA.AperFunction,ViaPad*%
%ADD13C,0.600000*%
%TD*%
%TA.AperFunction,ViaPad*%
%ADD14C,0.700000*%
%TD*%
%TA.AperFunction,Conductor*%
%ADD15C,0.200000*%
%TD*%
%TA.AperFunction,Conductor*%
%ADD16C,0.500000*%
%TD*%
G04 APERTURE END LIST*
D10*
%TO.P,U2,1*%
%TO.N,N/C*%
X132875000Y-106856000D03*
%TO.P,U2,2,TxD*%
%TO.N,/TxD*%
X132875000Y-107856000D03*
%TO.P,U2,3*%
%TO.N,N/C*%
X132875000Y-108856000D03*
%TO.P,U2,4,TxF*%
%TO.N,/TxF*%
X132875000Y-109856000D03*
%TO.P,U2,5,SYNC*%
%TO.N,/SYNC*%
X132875000Y-110856000D03*
%TO.P,U2,6*%
%TO.N,N/C*%
X132875000Y-111856000D03*
%TO.P,U2,7,CLICK*%
%TO.N,/CLICK*%
X132875000Y-112856000D03*
%TO.P,U2,8*%
%TO.N,N/C*%
X132875000Y-113856000D03*
%TO.P,U2,9,TEST-0*%
%TO.N,/TEST-0*%
X132875000Y-114856000D03*
%TO.P,U2,10*%
%TO.N,N/C*%
X132875000Y-115856000D03*
%TO.P,U2,11,TEST-1*%
%TO.N,/TEST-1*%
X132875000Y-116856000D03*
%TO.P,U2,12*%
%TO.N,N/C*%
X132875000Y-117856000D03*
%TO.P,U2,13,P7*%
%TO.N,/P7*%
X132875000Y-118856000D03*
%TO.P,U2,14*%
%TO.N,N/C*%
X132875000Y-119856000D03*
%TO.P,U2,15,P6*%
%TO.N,/P6*%
X132875000Y-120856000D03*
%TO.P,U2,16,P5*%
%TO.N,/P5*%
X132875000Y-121856000D03*
%TO.P,U2,17*%
%TO.N,N/C*%
X132875000Y-122856000D03*
%TO.P,U2,18,P4*%
%TO.N,/P4*%
X132875000Y-123856000D03*
%TO.P,U2,19*%
%TO.N,N/C*%
X132875000Y-124856000D03*
D11*
%TO.P,U2,20*%
X135550000Y-127531000D03*
%TO.P,U2,21,P3*%
%TO.N,/P3*%
X136550000Y-127531000D03*
%TO.P,U2,22,P2*%
%TO.N,/P2*%
X137550000Y-127531000D03*
%TO.P,U2,23,P1*%
%TO.N,/P1*%
X138550000Y-127531000D03*
%TO.P,U2,24,P0*%
%TO.N,/P0*%
X139550000Y-127531000D03*
%TO.P,U2,25,VSS*%
%TO.N,GND*%
X140550000Y-127531000D03*
%TO.P,U2,26*%
%TO.N,N/C*%
X141550000Y-127531000D03*
%TO.P,U2,27,D0*%
%TO.N,/D0*%
X142550000Y-127531000D03*
%TO.P,U2,28,D1*%
%TO.N,/D1*%
X143550000Y-127531000D03*
%TO.P,U2,29,D2*%
%TO.N,/D2*%
X144550000Y-127531000D03*
%TO.P,U2,30,D3*%
%TO.N,/D3*%
X145550000Y-127531000D03*
%TO.P,U2,31,D4*%
%TO.N,/D4*%
X146550000Y-127531000D03*
%TO.P,U2,32*%
%TO.N,N/C*%
X147550000Y-127531000D03*
D10*
%TO.P,U2,33*%
X150225000Y-124856000D03*
%TO.P,U2,34,D5*%
%TO.N,/D5*%
X150225000Y-123856000D03*
%TO.P,U2,35*%
%TO.N,N/C*%
X150225000Y-122856000D03*
%TO.P,U2,36,D6*%
%TO.N,/D6*%
X150225000Y-121856000D03*
%TO.P,U2,37,D7*%
%TO.N,/D7*%
X150225000Y-120856000D03*
%TO.P,U2,38*%
%TO.N,N/C*%
X150225000Y-119856000D03*
%TO.P,U2,39,A0*%
%TO.N,/A0*%
X150225000Y-118856000D03*
%TO.P,U2,40*%
%TO.N,N/C*%
X150225000Y-117856000D03*
%TO.P,U2,41,A1*%
%TO.N,/A1*%
X150225000Y-116856000D03*
%TO.P,U2,42*%
%TO.N,N/C*%
X150225000Y-115856000D03*
%TO.P,U2,43,A2*%
%TO.N,/A2*%
X150225000Y-114856000D03*
%TO.P,U2,44*%
%TO.N,N/C*%
X150225000Y-113856000D03*
%TO.P,U2,45,/CS*%
%TO.N,/{slash}CS*%
X150225000Y-112856000D03*
%TO.P,U2,46*%
%TO.N,N/C*%
X150225000Y-111856000D03*
%TO.P,U2,47,/WR*%
%TO.N,/{slash}WR*%
X150225000Y-110856000D03*
%TO.P,U2,48,/RD*%
%TO.N,/{slash}RD*%
X150225000Y-109856000D03*
%TO.P,U2,49*%
%TO.N,N/C*%
X150225000Y-108856000D03*
%TO.P,U2,50,/VR*%
%TO.N,/{slash}VR*%
X150225000Y-107856000D03*
%TO.P,U2,51*%
%TO.N,N/C*%
X150225000Y-106856000D03*
D11*
%TO.P,U2,52*%
X147550000Y-104181000D03*
%TO.P,U2,53,/IRQ*%
%TO.N,/{slash}IRQ*%
X146550000Y-104181000D03*
%TO.P,U2,54,/IC*%
%TO.N,/{slash}IC*%
X145550000Y-104181000D03*
%TO.P,U2,55,TEST-2*%
%TO.N,/TEST-2*%
X144550000Y-104181000D03*
%TO.P,U2,56,CLKI*%
%TO.N,/CLKI*%
X143550000Y-104181000D03*
%TO.P,U2,57,CLK*%
%TO.N,/CLK*%
X142550000Y-104181000D03*
%TO.P,U2,58,VDD*%
%TO.N,/VDD*%
X141550000Y-104181000D03*
%TO.P,U2,59*%
%TO.N,N/C*%
X140550000Y-104181000D03*
%TO.P,U2,60,RxD*%
%TO.N,/RxD*%
X139550000Y-104181000D03*
%TO.P,U2,61,RxF*%
%TO.N,/RxF*%
X138550000Y-104181000D03*
%TO.P,U2,62,CLKM*%
%TO.N,/CLKM*%
X137550000Y-104181000D03*
%TO.P,U2,63,CLKF*%
%TO.N,/CLKF*%
X136550000Y-104181000D03*
%TO.P,U2,64*%
%TO.N,N/C*%
X135550000Y-104181000D03*
%TD*%
D12*
%TO.P,C1,1*%
%TO.N,/VDD*%
X141100000Y-100137500D03*
%TO.P,C1,2*%
%TO.N,GND*%
X141100000Y-98062500D03*
%TD*%
D13*
%TO.N,/D5*%
X147800000Y-125000000D03*
%TO.N,/P3*%
X135636000Y-129667000D03*
%TO.N,/D2*%
X147320000Y-134747000D03*
%TO.N,/P2*%
X135890000Y-132207000D03*
%TO.N,/TEST-0*%
X135382000Y-114427000D03*
%TO.N,/{slash}IRQ*%
X147320000Y-101981000D03*
%TO.N,/D7*%
X147500000Y-121400000D03*
%TO.N,/D0*%
X147320000Y-139827000D03*
%TO.N,/P6*%
X135600000Y-121200000D03*
%TO.N,/P5*%
X135600000Y-122500000D03*
%TO.N,/CLKF*%
X135890000Y-101854000D03*
%TO.N,/P1*%
X135890000Y-134747000D03*
%TO.N,/P4*%
X135600000Y-124700000D03*
%TO.N,/P7*%
X135509000Y-119634000D03*
%TO.N,/A1*%
X147701000Y-116856000D03*
%TO.N,/TxF*%
X135509000Y-106934000D03*
%TO.N,/P0*%
X135890000Y-137287000D03*
%TO.N,/A0*%
X147701000Y-119507000D03*
%TO.N,/CLICK*%
X135450000Y-112750000D03*
%TO.N,/A2*%
X147828000Y-114554000D03*
%TO.N,/CLK*%
X147357000Y-91657000D03*
%TO.N,/TEST-1*%
X135255000Y-116840000D03*
%TO.N,/SYNC*%
X135500000Y-110200000D03*
%TO.N,/TxD*%
X133800000Y-105400000D03*
%TO.N,/CLKM*%
X135953500Y-99250500D03*
%TO.N,/{slash}IC*%
X147320000Y-99187000D03*
%TO.N,/D3*%
X147320000Y-132207000D03*
%TO.N,/D6*%
X147500000Y-123300000D03*
%TO.N,/{slash}WR*%
X147500000Y-110800000D03*
%TO.N,/RxF*%
X135890000Y-96774000D03*
%TO.N,/TEST-2*%
X147129500Y-96837500D03*
%TO.N,/CLKI*%
X147383500Y-94170500D03*
%TO.N,/RxD*%
X135890000Y-94234000D03*
%TO.N,/{slash}RD*%
X147600000Y-109400000D03*
D14*
%TO.N,/VDD*%
X141550000Y-101800000D03*
D13*
%TO.N,/{slash}VR*%
X147200000Y-107900000D03*
%TO.N,/D1*%
X147193000Y-137287000D03*
%TO.N,/{slash}CS*%
X147400000Y-112800000D03*
%TO.N,/D4*%
X147320000Y-129667000D03*
D14*
%TO.N,GND*%
X137900000Y-123100000D03*
X147700000Y-92900000D03*
X138200000Y-108800000D03*
D13*
X141000000Y-92000000D03*
X145000000Y-139000000D03*
X138000000Y-139000000D03*
X135890000Y-139827000D03*
D14*
X145100000Y-123200000D03*
X145500000Y-108800000D03*
X147800000Y-138600000D03*
%TD*%
D15*
%TO.N,/D5*%
X148944000Y-123856000D02*
X150225000Y-123856000D01*
X147800000Y-125000000D02*
X148944000Y-123856000D01*
X149225000Y-123856000D02*
X149999999Y-123856000D01*
%TO.N,/P3*%
X136550000Y-126531000D02*
X136550000Y-128753000D01*
X136550000Y-128753000D02*
X135636000Y-129667000D01*
%TO.N,/D2*%
X144550000Y-126531000D02*
X144550000Y-131977000D01*
X144550000Y-131977000D02*
X147320000Y-134747000D01*
%TO.N,/P2*%
X137550000Y-126531000D02*
X137550000Y-130547000D01*
X137550000Y-130547000D02*
X135890000Y-132207000D01*
%TO.N,/TEST-0*%
X134953000Y-114856000D02*
X135382000Y-114427000D01*
X133875000Y-114856000D02*
X134953000Y-114856000D01*
%TO.N,/{slash}IRQ*%
X146550000Y-102751000D02*
X147320000Y-101981000D01*
X146550000Y-105181000D02*
X146550000Y-102751000D01*
%TO.N,/D7*%
X147500000Y-121400000D02*
X148044000Y-120856000D01*
X148044000Y-120856000D02*
X148765000Y-120856000D01*
%TO.N,/D0*%
X142550000Y-126115448D02*
X142550000Y-135057000D01*
X142550000Y-135057000D02*
X147320000Y-139827000D01*
%TO.N,/P6*%
X133875000Y-120856000D02*
X135256000Y-120856000D01*
X135256000Y-120856000D02*
X135600000Y-121200000D01*
%TO.N,/P5*%
X134956000Y-121856000D02*
X135600000Y-122500000D01*
X133875000Y-121856000D02*
X134956000Y-121856000D01*
%TO.N,/CLKF*%
X136550000Y-102514000D02*
X135890000Y-101854000D01*
X136550000Y-105181000D02*
X136550000Y-102514000D01*
%TO.N,/P1*%
X138550000Y-126531000D02*
X138550000Y-132087000D01*
X138550000Y-132087000D02*
X135890000Y-134747000D01*
%TO.N,/P4*%
X133875000Y-123856000D02*
X133100001Y-123856000D01*
X134756000Y-123856000D02*
X135600000Y-124700000D01*
X132875000Y-123856000D02*
X134756000Y-123856000D01*
%TO.N,/P7*%
X134731000Y-118856000D02*
X135509000Y-119634000D01*
X133875000Y-118856000D02*
X134731000Y-118856000D01*
%TO.N,/A1*%
X149225000Y-116856000D02*
X147701000Y-116856000D01*
%TO.N,/TxF*%
X134290552Y-109856000D02*
X135509000Y-108637552D01*
X135509000Y-108637552D02*
X135509000Y-106934000D01*
%TO.N,/P0*%
X139550000Y-133627000D02*
X135890000Y-137287000D01*
X139550000Y-126531000D02*
X139550000Y-133627000D01*
%TO.N,/A0*%
X148352000Y-118856000D02*
X147701000Y-119507000D01*
X149225000Y-118856000D02*
X148352000Y-118856000D01*
%TO.N,/CLICK*%
X135344000Y-112856000D02*
X135450000Y-112750000D01*
X133875000Y-112856000D02*
X135344000Y-112856000D01*
%TO.N,/A2*%
X149225000Y-114856000D02*
X148130000Y-114856000D01*
X148130000Y-114856000D02*
X147828000Y-114554000D01*
%TO.N,/CLK*%
X147357000Y-91657000D02*
X142630000Y-96384000D01*
X142630000Y-96384000D02*
X142630000Y-105101000D01*
%TO.N,/TEST-1*%
X135239000Y-116856000D02*
X135255000Y-116840000D01*
X133875000Y-116856000D02*
X135239000Y-116856000D01*
%TO.N,/SYNC*%
X134844000Y-110856000D02*
X135500000Y-110200000D01*
X133875000Y-110856000D02*
X134844000Y-110856000D01*
%TO.N,/TxD*%
X134800000Y-106400000D02*
X134800000Y-107300000D01*
X134800000Y-107300000D02*
X134244000Y-107856000D01*
X133800000Y-105400000D02*
X134800000Y-106400000D01*
X134244000Y-107856000D02*
X132875000Y-107856000D01*
X133875000Y-107856000D02*
X133100001Y-107856000D01*
%TO.N,/CLKM*%
X137550000Y-100847000D02*
X135953500Y-99250500D01*
X137550000Y-105181000D02*
X137550000Y-100847000D01*
%TO.N,/{slash}IC*%
X145550000Y-100957000D02*
X147320000Y-99187000D01*
X145550000Y-105181000D02*
X145550000Y-100957000D01*
%TO.N,/D3*%
X145550000Y-130437000D02*
X147320000Y-132207000D01*
X145550000Y-126531000D02*
X145550000Y-130437000D01*
%TO.N,/D6*%
X149225000Y-121856000D02*
X148450001Y-121856000D01*
X148450001Y-121856000D02*
X147500000Y-122806001D01*
X147500000Y-122806001D02*
X147500000Y-123300000D01*
%TO.N,/{slash}WR*%
X147556000Y-110856000D02*
X147500000Y-110800000D01*
X149225000Y-110856000D02*
X147556000Y-110856000D01*
%TO.N,/RxF*%
X138550000Y-99434000D02*
X135890000Y-96774000D01*
X138550000Y-105181000D02*
X138550000Y-99434000D01*
%TO.N,/TEST-2*%
X144550000Y-99417000D02*
X147129500Y-96837500D01*
X144550000Y-105181000D02*
X144550000Y-99417000D01*
%TO.N,/CLKI*%
X143550000Y-98004000D02*
X143550000Y-105181000D01*
X147383500Y-94170500D02*
X143550000Y-98004000D01*
%TO.N,/RxD*%
X139550000Y-105181000D02*
X139550000Y-97894000D01*
X139550000Y-97894000D02*
X135890000Y-94234000D01*
%TO.N,/{slash}RD*%
X149225000Y-109856000D02*
X148056000Y-109856000D01*
X148056000Y-109856000D02*
X147600000Y-109400000D01*
D16*
%TO.N,/VDD*%
X141550000Y-101800000D02*
X141550000Y-101930500D01*
X141550000Y-101800000D02*
X141550000Y-100587500D01*
X141550000Y-101800000D02*
X141550000Y-105181000D01*
X141550000Y-100587500D02*
X141100000Y-100137500D01*
D15*
%TO.N,/{slash}VR*%
X147200000Y-107900000D02*
X147244000Y-107856000D01*
X147244000Y-107856000D02*
X149225000Y-107856000D01*
%TO.N,/D1*%
X143550000Y-133644000D02*
X147193000Y-137287000D01*
X143550000Y-126531000D02*
X143550000Y-133644000D01*
%TO.N,/{slash}CS*%
X149225000Y-112856000D02*
X147456000Y-112856000D01*
X147456000Y-112856000D02*
X147400000Y-112800000D01*
%TO.N,/D4*%
X146550000Y-128897000D02*
X146550000Y-126531000D01*
X146550000Y-128897000D02*
X147320000Y-129667000D01*
D16*
%TO.N,GND*%
X140550000Y-135167000D02*
X135890000Y-139827000D01*
X140550000Y-126531000D02*
X140550000Y-135167000D01*
%TD*%
%TA.AperFunction,Conductor*%
%TO.N,GND*%
G36*
X152342539Y-90605185D02*
G01*
X152388294Y-90657989D01*
X152399500Y-90709500D01*
X152399500Y-106368994D01*
X152379815Y-106436033D01*
X152327011Y-106481788D01*
X152257853Y-106491732D01*
X152194297Y-106462707D01*
X152168768Y-106432115D01*
X152093083Y-106304138D01*
X152093076Y-106304129D01*
X151976870Y-106187923D01*
X151976862Y-106187917D01*
X151898681Y-106141681D01*
X151835398Y-106104256D01*
X151835397Y-106104255D01*
X151835396Y-106104255D01*
X151835393Y-106104254D01*
X151677573Y-106058402D01*
X151677567Y-106058401D01*
X151640701Y-106055500D01*
X151640694Y-106055500D01*
X148809306Y-106055500D01*
X148809298Y-106055500D01*
X148772432Y-106058401D01*
X148772426Y-106058402D01*
X148614606Y-106104254D01*
X148614603Y-106104255D01*
X148473137Y-106187917D01*
X148473129Y-106187923D01*
X148356923Y-106304129D01*
X148356917Y-106304137D01*
X148273255Y-106445603D01*
X148273254Y-106445606D01*
X148227402Y-106603426D01*
X148227401Y-106603432D01*
X148224500Y-106640298D01*
X148224500Y-107071701D01*
X148227401Y-107108568D01*
X148227520Y-107109215D01*
X148227481Y-107109580D01*
X148227899Y-107114886D01*
X148226914Y-107114963D01*
X148220204Y-107178701D01*
X148176483Y-107233201D01*
X148110237Y-107255411D01*
X148105539Y-107255500D01*
X147714617Y-107255500D01*
X147648645Y-107236494D01*
X147549522Y-107174210D01*
X147549518Y-107174209D01*
X147379262Y-107114633D01*
X147379249Y-107114630D01*
X147200004Y-107094435D01*
X147199996Y-107094435D01*
X147020750Y-107114630D01*
X147020745Y-107114631D01*
X146850476Y-107174211D01*
X146697737Y-107270184D01*
X146570184Y-107397737D01*
X146474211Y-107550476D01*
X146414631Y-107720745D01*
X146414630Y-107720750D01*
X146394435Y-107899996D01*
X146394435Y-107900003D01*
X146414630Y-108079249D01*
X146414631Y-108079254D01*
X146474211Y-108249523D01*
X146561735Y-108388816D01*
X146570184Y-108402262D01*
X146697738Y-108529816D01*
X146832722Y-108614632D01*
X146850480Y-108625790D01*
X146954340Y-108662133D01*
X147011116Y-108702854D01*
X147036863Y-108767807D01*
X147023407Y-108836369D01*
X147001067Y-108866854D01*
X146970184Y-108897737D01*
X146874211Y-109050476D01*
X146814631Y-109220745D01*
X146814630Y-109220750D01*
X146794435Y-109399996D01*
X146794435Y-109400003D01*
X146814630Y-109579249D01*
X146814631Y-109579254D01*
X146874211Y-109749523D01*
X146970184Y-109902262D01*
X147035404Y-109967482D01*
X147068889Y-110028805D01*
X147063905Y-110098497D01*
X147022033Y-110154430D01*
X147013698Y-110160155D01*
X146997739Y-110170183D01*
X146997737Y-110170184D01*
X146870184Y-110297737D01*
X146774211Y-110450476D01*
X146714631Y-110620745D01*
X146714630Y-110620750D01*
X146694435Y-110799996D01*
X146694435Y-110800003D01*
X146714630Y-110979249D01*
X146714631Y-110979254D01*
X146774211Y-111149523D01*
X146847649Y-111266398D01*
X146870184Y-111302262D01*
X146997738Y-111429816D01*
X147150478Y-111525789D01*
X147320739Y-111585366D01*
X147320745Y-111585368D01*
X147320750Y-111585369D01*
X147499996Y-111605565D01*
X147500000Y-111605565D01*
X147500004Y-111605565D01*
X147679249Y-111585369D01*
X147679251Y-111585368D01*
X147679255Y-111585368D01*
X147679258Y-111585366D01*
X147679262Y-111585366D01*
X147769377Y-111553832D01*
X147849522Y-111525789D01*
X147929547Y-111475505D01*
X147995519Y-111456500D01*
X148105539Y-111456500D01*
X148172578Y-111476185D01*
X148218333Y-111528989D01*
X148228277Y-111598147D01*
X148227520Y-111602785D01*
X148227401Y-111603431D01*
X148224500Y-111640298D01*
X148224500Y-112071701D01*
X148227401Y-112108568D01*
X148227520Y-112109215D01*
X148227481Y-112109580D01*
X148227899Y-112114886D01*
X148226914Y-112114963D01*
X148220204Y-112178701D01*
X148176483Y-112233201D01*
X148110237Y-112255411D01*
X148105539Y-112255500D01*
X148038940Y-112255500D01*
X147971901Y-112235815D01*
X147951259Y-112219181D01*
X147902262Y-112170184D01*
X147749523Y-112074211D01*
X147579254Y-112014631D01*
X147579249Y-112014630D01*
X147400004Y-111994435D01*
X147399996Y-111994435D01*
X147220750Y-112014630D01*
X147220745Y-112014631D01*
X147050476Y-112074211D01*
X146897737Y-112170184D01*
X146770184Y-112297737D01*
X146674211Y-112450476D01*
X146614631Y-112620745D01*
X146614630Y-112620750D01*
X146594435Y-112799996D01*
X146594435Y-112800003D01*
X146614630Y-112979249D01*
X146614631Y-112979254D01*
X146674211Y-113149523D01*
X146738767Y-113252262D01*
X146770184Y-113302262D01*
X146897738Y-113429816D01*
X146970453Y-113475506D01*
X147046769Y-113523459D01*
X147050478Y-113525789D01*
X147135573Y-113555565D01*
X147220745Y-113585368D01*
X147220750Y-113585369D01*
X147399996Y-113605565D01*
X147402403Y-113605565D01*
X147403901Y-113606005D01*
X147406919Y-113606345D01*
X147406859Y-113606873D01*
X147469442Y-113625250D01*
X147515197Y-113678054D01*
X147525141Y-113747212D01*
X147496116Y-113810768D01*
X147468375Y-113834559D01*
X147325737Y-113924184D01*
X147198184Y-114051737D01*
X147102211Y-114204476D01*
X147042631Y-114374745D01*
X147042630Y-114374750D01*
X147022435Y-114553996D01*
X147022435Y-114554003D01*
X147042630Y-114733249D01*
X147042631Y-114733254D01*
X147102211Y-114903523D01*
X147198184Y-115056262D01*
X147325738Y-115183816D01*
X147371177Y-115212367D01*
X147443323Y-115257700D01*
X147478478Y-115279789D01*
X147640606Y-115336520D01*
X147648745Y-115339368D01*
X147648749Y-115339369D01*
X147747815Y-115350530D01*
X147768990Y-115352916D01*
X147817106Y-115368748D01*
X147898216Y-115415577D01*
X148010019Y-115445534D01*
X148050942Y-115456500D01*
X148050943Y-115456500D01*
X148105539Y-115456500D01*
X148172578Y-115476185D01*
X148218333Y-115528989D01*
X148228277Y-115598147D01*
X148227520Y-115602785D01*
X148227401Y-115603431D01*
X148224500Y-115640298D01*
X148224500Y-116016648D01*
X148204815Y-116083687D01*
X148152011Y-116129442D01*
X148082853Y-116139386D01*
X148057401Y-116131633D01*
X148057095Y-116132511D01*
X147880254Y-116070631D01*
X147880249Y-116070630D01*
X147701004Y-116050435D01*
X147700996Y-116050435D01*
X147521750Y-116070630D01*
X147521745Y-116070631D01*
X147351476Y-116130211D01*
X147198737Y-116226184D01*
X147071184Y-116353737D01*
X146975211Y-116506476D01*
X146915631Y-116676745D01*
X146915630Y-116676750D01*
X146895435Y-116855996D01*
X146895435Y-116856003D01*
X146915630Y-117035249D01*
X146915631Y-117035254D01*
X146975211Y-117205523D01*
X147069763Y-117356000D01*
X147071184Y-117358262D01*
X147198738Y-117485816D01*
X147272413Y-117532109D01*
X147351474Y-117581787D01*
X147351478Y-117581789D01*
X147518710Y-117640306D01*
X147521745Y-117641368D01*
X147521750Y-117641369D01*
X147700996Y-117661565D01*
X147701000Y-117661565D01*
X147701004Y-117661565D01*
X147880249Y-117641369D01*
X147880252Y-117641368D01*
X147880255Y-117641368D01*
X148050522Y-117581789D01*
X148050522Y-117581788D01*
X148057095Y-117579489D01*
X148057899Y-117581787D01*
X148115634Y-117572278D01*
X148179770Y-117599997D01*
X148218738Y-117657991D01*
X148224500Y-117695351D01*
X148224500Y-118071701D01*
X148227401Y-118108567D01*
X148227402Y-118108570D01*
X148234968Y-118134613D01*
X148234767Y-118204482D01*
X148196825Y-118263152D01*
X148147989Y-118288980D01*
X148120215Y-118296423D01*
X148106860Y-118304134D01*
X148106857Y-118304135D01*
X147983290Y-118375475D01*
X147983282Y-118375481D01*
X147871478Y-118487286D01*
X147682465Y-118676298D01*
X147621142Y-118709783D01*
X147608668Y-118711837D01*
X147521750Y-118721630D01*
X147351478Y-118781210D01*
X147198737Y-118877184D01*
X147071184Y-119004737D01*
X146975211Y-119157476D01*
X146915631Y-119327745D01*
X146915630Y-119327750D01*
X146895435Y-119506996D01*
X146895435Y-119507003D01*
X146915630Y-119686249D01*
X146915631Y-119686254D01*
X146975211Y-119856523D01*
X147055010Y-119983522D01*
X147071184Y-120009262D01*
X147198738Y-120136816D01*
X147351478Y-120232789D01*
X147486026Y-120279869D01*
X147510782Y-120288532D01*
X147567558Y-120329254D01*
X147593305Y-120394207D01*
X147579849Y-120462769D01*
X147557508Y-120493255D01*
X147481465Y-120569298D01*
X147420142Y-120602783D01*
X147407668Y-120604837D01*
X147320750Y-120614630D01*
X147150478Y-120674210D01*
X146997737Y-120770184D01*
X146870184Y-120897737D01*
X146774211Y-121050476D01*
X146714631Y-121220745D01*
X146714630Y-121220750D01*
X146694435Y-121399996D01*
X146694435Y-121400003D01*
X146714630Y-121579249D01*
X146714631Y-121579254D01*
X146774211Y-121749523D01*
X146850028Y-121870184D01*
X146870184Y-121902262D01*
X146997738Y-122029816D01*
X147058809Y-122068189D01*
X147129667Y-122112713D01*
X147175958Y-122165048D01*
X147186606Y-122234102D01*
X147158231Y-122297950D01*
X147151378Y-122305386D01*
X147131288Y-122325477D01*
X147131286Y-122325479D01*
X147019481Y-122437283D01*
X147019479Y-122437285D01*
X146996287Y-122477455D01*
X146986485Y-122494435D01*
X146950158Y-122557354D01*
X146940424Y-122574214D01*
X146899497Y-122726951D01*
X146898630Y-122733539D01*
X146873849Y-122791817D01*
X146873889Y-122791842D01*
X146873733Y-122792089D01*
X146872643Y-122794654D01*
X146870185Y-122797735D01*
X146774211Y-122950476D01*
X146714631Y-123120745D01*
X146714630Y-123120750D01*
X146694435Y-123299996D01*
X146694435Y-123300003D01*
X146714630Y-123479249D01*
X146714631Y-123479254D01*
X146774211Y-123649523D01*
X146822432Y-123726265D01*
X146870184Y-123802262D01*
X146997738Y-123929816D01*
X147150478Y-124025789D01*
X147277352Y-124070184D01*
X147320745Y-124085368D01*
X147320750Y-124085369D01*
X147333449Y-124086800D01*
X147397864Y-124113866D01*
X147437419Y-124171460D01*
X147439558Y-124241297D01*
X147403600Y-124301204D01*
X147385540Y-124315013D01*
X147297740Y-124370182D01*
X147297737Y-124370184D01*
X147170184Y-124497737D01*
X147074211Y-124650476D01*
X147014631Y-124820745D01*
X147014630Y-124820750D01*
X146994435Y-124999996D01*
X146994435Y-125000003D01*
X147014630Y-125179249D01*
X147014631Y-125179254D01*
X147074211Y-125349523D01*
X147102802Y-125395025D01*
X147121802Y-125462262D01*
X147101434Y-125529097D01*
X147048166Y-125574311D01*
X146978910Y-125583548D01*
X146963213Y-125580073D01*
X146802573Y-125533402D01*
X146802567Y-125533401D01*
X146765701Y-125530500D01*
X146765694Y-125530500D01*
X146334306Y-125530500D01*
X146334298Y-125530500D01*
X146297432Y-125533401D01*
X146297426Y-125533402D01*
X146139606Y-125579253D01*
X146113119Y-125594918D01*
X146045394Y-125612098D01*
X145986881Y-125594918D01*
X145960393Y-125579253D01*
X145802573Y-125533402D01*
X145802567Y-125533401D01*
X145765701Y-125530500D01*
X145765694Y-125530500D01*
X145334306Y-125530500D01*
X145334298Y-125530500D01*
X145297432Y-125533401D01*
X145297426Y-125533402D01*
X145139606Y-125579253D01*
X145113119Y-125594918D01*
X145045394Y-125612098D01*
X144986881Y-125594918D01*
X144960393Y-125579253D01*
X144802573Y-125533402D01*
X144802567Y-125533401D01*
X144765701Y-125530500D01*
X144765694Y-125530500D01*
X144334306Y-125530500D01*
X144334298Y-125530500D01*
X144297432Y-125533401D01*
X144297426Y-125533402D01*
X144139606Y-125579253D01*
X144113119Y-125594918D01*
X144045394Y-125612098D01*
X143986881Y-125594918D01*
X143960393Y-125579253D01*
X143802573Y-125533402D01*
X143802567Y-125533401D01*
X143765701Y-125530500D01*
X143765694Y-125530500D01*
X143334306Y-125530500D01*
X143334298Y-125530500D01*
X143297432Y-125533401D01*
X143297426Y-125533402D01*
X143139606Y-125579253D01*
X143113119Y-125594918D01*
X143045394Y-125612098D01*
X142986881Y-125594918D01*
X142960393Y-125579253D01*
X142802573Y-125533402D01*
X142802567Y-125533401D01*
X142765701Y-125530500D01*
X142765694Y-125530500D01*
X142703423Y-125530500D01*
X142671330Y-125526275D01*
X142629057Y-125514948D01*
X142470943Y-125514948D01*
X142428670Y-125526275D01*
X142396577Y-125530500D01*
X142334298Y-125530500D01*
X142297432Y-125533401D01*
X142297426Y-125533402D01*
X142139606Y-125579253D01*
X142113119Y-125594918D01*
X142045394Y-125612098D01*
X141986881Y-125594918D01*
X141960393Y-125579253D01*
X141802573Y-125533402D01*
X141802567Y-125533401D01*
X141765701Y-125530500D01*
X141765694Y-125530500D01*
X141334306Y-125530500D01*
X141334298Y-125530500D01*
X141297432Y-125533401D01*
X141297426Y-125533402D01*
X141139605Y-125579254D01*
X141139595Y-125579258D01*
X141112627Y-125595207D01*
X141044902Y-125612388D01*
X140986388Y-125595207D01*
X140960196Y-125579717D01*
X140960193Y-125579716D01*
X140802494Y-125533900D01*
X140802497Y-125533900D01*
X140800000Y-125533703D01*
X140800000Y-125896950D01*
X140795076Y-125931545D01*
X140752402Y-126078426D01*
X140752401Y-126078432D01*
X140749500Y-126115298D01*
X140749500Y-128946701D01*
X140752401Y-128983567D01*
X140752402Y-128983573D01*
X140795076Y-129130455D01*
X140800000Y-129165050D01*
X140800000Y-129528295D01*
X140800001Y-129528295D01*
X140802486Y-129528100D01*
X140960199Y-129482281D01*
X140986386Y-129466794D01*
X141054110Y-129449610D01*
X141112628Y-129466791D01*
X141139602Y-129482744D01*
X141139604Y-129482744D01*
X141139605Y-129482745D01*
X141297426Y-129528597D01*
X141297429Y-129528597D01*
X141297431Y-129528598D01*
X141334306Y-129531500D01*
X141334314Y-129531500D01*
X141765686Y-129531500D01*
X141765694Y-129531500D01*
X141802569Y-129528598D01*
X141802570Y-129528597D01*
X141803215Y-129528480D01*
X141803580Y-129528518D01*
X141808886Y-129528101D01*
X141808963Y-129529085D01*
X141872701Y-129535796D01*
X141927201Y-129579517D01*
X141949411Y-129645763D01*
X141949500Y-129650461D01*
X141949500Y-134970330D01*
X141949499Y-134970348D01*
X141949499Y-135136054D01*
X141949498Y-135136054D01*
X141990423Y-135288785D01*
X142019358Y-135338900D01*
X142019359Y-135338904D01*
X142019360Y-135338904D01*
X142069479Y-135425714D01*
X142069481Y-135425717D01*
X142188349Y-135544585D01*
X142188355Y-135544590D01*
X146489298Y-139845534D01*
X146522783Y-139906857D01*
X146524837Y-139919331D01*
X146534630Y-140006249D01*
X146594210Y-140176521D01*
X146624375Y-140224528D01*
X146643375Y-140291765D01*
X146623007Y-140358600D01*
X146569739Y-140403814D01*
X146519381Y-140414500D01*
X130834500Y-140414500D01*
X130767461Y-140394815D01*
X130721706Y-140342011D01*
X130710500Y-140290500D01*
X130710500Y-125359914D01*
X130730185Y-125292875D01*
X130782989Y-125247120D01*
X130852147Y-125237176D01*
X130915703Y-125266201D01*
X130941232Y-125296794D01*
X131006914Y-125407858D01*
X131006917Y-125407862D01*
X131006918Y-125407864D01*
X131006923Y-125407870D01*
X131123129Y-125524076D01*
X131123133Y-125524079D01*
X131123135Y-125524081D01*
X131264602Y-125607744D01*
X131280587Y-125612388D01*
X131422426Y-125653597D01*
X131422429Y-125653597D01*
X131422431Y-125653598D01*
X131459306Y-125656500D01*
X131459314Y-125656500D01*
X134290686Y-125656500D01*
X134290694Y-125656500D01*
X134327569Y-125653598D01*
X134327571Y-125653597D01*
X134327573Y-125653597D01*
X134401062Y-125632246D01*
X134485398Y-125607744D01*
X134626865Y-125524081D01*
X134743081Y-125407865D01*
X134822510Y-125273557D01*
X134873576Y-125225876D01*
X134942318Y-125213372D01*
X135006907Y-125240017D01*
X135016921Y-125248999D01*
X135097740Y-125329818D01*
X135150512Y-125362976D01*
X135196804Y-125415310D01*
X135207453Y-125484364D01*
X135179078Y-125548212D01*
X135145173Y-125573350D01*
X135146317Y-125575285D01*
X135139602Y-125579255D01*
X135139602Y-125579256D01*
X135138819Y-125579719D01*
X134998137Y-125662917D01*
X134998129Y-125662923D01*
X134881923Y-125779129D01*
X134881917Y-125779137D01*
X134798255Y-125920603D01*
X134798254Y-125920606D01*
X134752402Y-126078426D01*
X134752401Y-126078432D01*
X134749500Y-126115298D01*
X134749500Y-128946701D01*
X134752401Y-128983567D01*
X134752402Y-128983573D01*
X134798254Y-129141393D01*
X134798254Y-129141394D01*
X134877946Y-129276148D01*
X134895128Y-129343872D01*
X134888255Y-129380222D01*
X134850632Y-129487742D01*
X134850630Y-129487750D01*
X134830435Y-129666996D01*
X134830435Y-129667003D01*
X134850630Y-129846249D01*
X134850631Y-129846254D01*
X134910211Y-130016523D01*
X134985851Y-130136903D01*
X135006184Y-130169262D01*
X135133738Y-130296816D01*
X135286478Y-130392789D01*
X135456745Y-130452368D01*
X135456750Y-130452369D01*
X135635996Y-130472565D01*
X135636000Y-130472565D01*
X135636004Y-130472565D01*
X135815249Y-130452369D01*
X135815252Y-130452368D01*
X135815255Y-130452368D01*
X135985522Y-130392789D01*
X136138262Y-130296816D01*
X136265816Y-130169262D01*
X136361789Y-130016522D01*
X136421368Y-129846255D01*
X136431161Y-129759329D01*
X136458226Y-129694918D01*
X136466690Y-129685544D01*
X136584417Y-129567818D01*
X136645740Y-129534334D01*
X136672097Y-129531500D01*
X136765686Y-129531500D01*
X136765694Y-129531500D01*
X136802569Y-129528598D01*
X136802570Y-129528597D01*
X136803215Y-129528480D01*
X136803580Y-129528518D01*
X136808886Y-129528101D01*
X136808963Y-129529085D01*
X136872701Y-129535796D01*
X136927201Y-129579517D01*
X136949411Y-129645763D01*
X136949500Y-129650461D01*
X136949500Y-130246902D01*
X136929815Y-130313941D01*
X136913181Y-130334583D01*
X135871465Y-131376298D01*
X135810142Y-131409783D01*
X135797668Y-131411837D01*
X135710750Y-131421630D01*
X135540478Y-131481210D01*
X135387737Y-131577184D01*
X135260184Y-131704737D01*
X135164211Y-131857476D01*
X135104631Y-132027745D01*
X135104630Y-132027750D01*
X135084435Y-132206996D01*
X135084435Y-132207003D01*
X135104630Y-132386249D01*
X135104631Y-132386254D01*
X135164211Y-132556523D01*
X135260184Y-132709262D01*
X135387738Y-132836816D01*
X135540478Y-132932789D01*
X135710745Y-132992368D01*
X135710750Y-132992369D01*
X135889996Y-133012565D01*
X135890000Y-133012565D01*
X135890004Y-133012565D01*
X136069249Y-132992369D01*
X136069252Y-132992368D01*
X136069255Y-132992368D01*
X136239522Y-132932789D01*
X136392262Y-132836816D01*
X136519816Y-132709262D01*
X136615789Y-132556522D01*
X136675368Y-132386255D01*
X136685161Y-132299329D01*
X136712226Y-132234918D01*
X136720690Y-132225543D01*
X137737820Y-131208413D01*
X137799142Y-131174930D01*
X137868834Y-131179914D01*
X137924767Y-131221786D01*
X137949184Y-131287250D01*
X137949500Y-131296096D01*
X137949500Y-131786902D01*
X137929815Y-131853941D01*
X137913181Y-131874583D01*
X135871465Y-133916298D01*
X135810142Y-133949783D01*
X135797668Y-133951837D01*
X135710750Y-133961630D01*
X135540478Y-134021210D01*
X135387737Y-134117184D01*
X135260184Y-134244737D01*
X135164211Y-134397476D01*
X135104631Y-134567745D01*
X135104630Y-134567750D01*
X135084435Y-134746996D01*
X135084435Y-134747003D01*
X135104630Y-134926249D01*
X135104631Y-134926254D01*
X135164211Y-135096523D01*
X135260184Y-135249262D01*
X135387738Y-135376816D01*
X135540478Y-135472789D01*
X135710745Y-135532368D01*
X135710750Y-135532369D01*
X135889996Y-135552565D01*
X135890000Y-135552565D01*
X135890004Y-135552565D01*
X136069249Y-135532369D01*
X136069252Y-135532368D01*
X136069255Y-135532368D01*
X136239522Y-135472789D01*
X136392262Y-135376816D01*
X136519816Y-135249262D01*
X136615789Y-135096522D01*
X136675368Y-134926255D01*
X136685161Y-134839329D01*
X136712226Y-134774918D01*
X136720690Y-134765543D01*
X138737819Y-132748415D01*
X138799142Y-132714930D01*
X138868834Y-132719914D01*
X138924767Y-132761786D01*
X138949184Y-132827250D01*
X138949500Y-132836096D01*
X138949500Y-133326902D01*
X138929815Y-133393941D01*
X138913181Y-133414583D01*
X135871465Y-136456298D01*
X135810142Y-136489783D01*
X135797668Y-136491837D01*
X135710750Y-136501630D01*
X135540478Y-136561210D01*
X135387737Y-136657184D01*
X135260184Y-136784737D01*
X135164211Y-136937476D01*
X135104631Y-137107745D01*
X135104630Y-137107750D01*
X135084435Y-137286996D01*
X135084435Y-137287003D01*
X135104630Y-137466249D01*
X135104631Y-137466254D01*
X135164211Y-137636523D01*
X135260184Y-137789262D01*
X135387738Y-137916816D01*
X135540478Y-138012789D01*
X135710745Y-138072368D01*
X135710750Y-138072369D01*
X135889996Y-138092565D01*
X135890000Y-138092565D01*
X135890004Y-138092565D01*
X136069249Y-138072369D01*
X136069252Y-138072368D01*
X136069255Y-138072368D01*
X136239522Y-138012789D01*
X136392262Y-137916816D01*
X136519816Y-137789262D01*
X136615789Y-137636522D01*
X136675368Y-137466255D01*
X136685161Y-137379329D01*
X136712226Y-137314918D01*
X136720690Y-137305543D01*
X140030520Y-133995716D01*
X140109577Y-133858784D01*
X140150501Y-133706057D01*
X140150501Y-133547942D01*
X140150501Y-133540347D01*
X140150500Y-133540329D01*
X140150500Y-129649948D01*
X140170185Y-129582909D01*
X140222989Y-129537154D01*
X140292147Y-129527210D01*
X140296794Y-129527969D01*
X140297512Y-129528100D01*
X140299998Y-129528295D01*
X140300000Y-129528295D01*
X140300000Y-129165050D01*
X140304924Y-129130455D01*
X140347597Y-128983573D01*
X140347598Y-128983567D01*
X140350499Y-128946701D01*
X140350500Y-128946694D01*
X140350500Y-126115306D01*
X140347598Y-126078431D01*
X140347597Y-126078426D01*
X140304924Y-125931545D01*
X140300000Y-125896950D01*
X140300000Y-125533703D01*
X140297504Y-125533900D01*
X140139806Y-125579716D01*
X140139798Y-125579719D01*
X140113608Y-125595208D01*
X140045884Y-125612388D01*
X139987371Y-125595207D01*
X139960398Y-125579256D01*
X139960393Y-125579254D01*
X139802573Y-125533402D01*
X139802567Y-125533401D01*
X139765701Y-125530500D01*
X139765694Y-125530500D01*
X139334306Y-125530500D01*
X139334298Y-125530500D01*
X139297432Y-125533401D01*
X139297426Y-125533402D01*
X139139606Y-125579253D01*
X139113119Y-125594918D01*
X139045394Y-125612098D01*
X138986881Y-125594918D01*
X138960393Y-125579253D01*
X138802573Y-125533402D01*
X138802567Y-125533401D01*
X138765701Y-125530500D01*
X138765694Y-125530500D01*
X138334306Y-125530500D01*
X138334298Y-125530500D01*
X138297432Y-125533401D01*
X138297426Y-125533402D01*
X138139606Y-125579253D01*
X138113119Y-125594918D01*
X138045394Y-125612098D01*
X137986881Y-125594918D01*
X137960393Y-125579253D01*
X137802573Y-125533402D01*
X137802567Y-125533401D01*
X137765701Y-125530500D01*
X137765694Y-125530500D01*
X137334306Y-125530500D01*
X137334298Y-125530500D01*
X137297432Y-125533401D01*
X137297426Y-125533402D01*
X137139606Y-125579253D01*
X137113119Y-125594918D01*
X137045394Y-125612098D01*
X136986881Y-125594918D01*
X136960393Y-125579253D01*
X136802573Y-125533402D01*
X136802567Y-125533401D01*
X136765701Y-125530500D01*
X136765694Y-125530500D01*
X136334306Y-125530500D01*
X136334298Y-125530500D01*
X136297432Y-125533401D01*
X136182105Y-125566907D01*
X136112236Y-125566707D01*
X136053566Y-125528764D01*
X136024723Y-125465126D01*
X136034864Y-125395996D01*
X136080770Y-125343323D01*
X136081349Y-125342956D01*
X136102262Y-125329816D01*
X136229816Y-125202262D01*
X136325789Y-125049522D01*
X136385368Y-124879255D01*
X136391960Y-124820750D01*
X136405565Y-124700003D01*
X136405565Y-124699996D01*
X136385369Y-124520750D01*
X136385368Y-124520745D01*
X136325789Y-124350478D01*
X136229816Y-124197738D01*
X136102262Y-124070184D01*
X136031608Y-124025789D01*
X135949521Y-123974210D01*
X135779249Y-123914630D01*
X135692330Y-123904837D01*
X135627916Y-123877770D01*
X135618533Y-123869298D01*
X135243590Y-123494355D01*
X135243588Y-123494352D01*
X135210916Y-123461680D01*
X135177431Y-123400357D01*
X135182415Y-123330665D01*
X135224287Y-123274732D01*
X135289751Y-123250315D01*
X135339552Y-123256958D01*
X135420737Y-123285366D01*
X135420743Y-123285367D01*
X135420745Y-123285368D01*
X135420746Y-123285368D01*
X135420750Y-123285369D01*
X135599996Y-123305565D01*
X135600000Y-123305565D01*
X135600004Y-123305565D01*
X135779249Y-123285369D01*
X135779252Y-123285368D01*
X135779255Y-123285368D01*
X135949522Y-123225789D01*
X136102262Y-123129816D01*
X136229816Y-123002262D01*
X136325789Y-122849522D01*
X136385368Y-122679255D01*
X136385369Y-122679249D01*
X136405565Y-122500003D01*
X136405565Y-122499996D01*
X136385369Y-122320750D01*
X136385368Y-122320745D01*
X136325788Y-122150476D01*
X136229815Y-121997737D01*
X136169759Y-121937681D01*
X136136274Y-121876358D01*
X136141258Y-121806666D01*
X136169759Y-121762319D01*
X136182556Y-121749522D01*
X136229816Y-121702262D01*
X136325789Y-121549522D01*
X136385368Y-121379255D01*
X136385369Y-121379249D01*
X136405565Y-121200003D01*
X136405565Y-121199996D01*
X136385369Y-121020750D01*
X136385368Y-121020745D01*
X136342326Y-120897738D01*
X136325789Y-120850478D01*
X136229816Y-120697738D01*
X136102262Y-120570184D01*
X136100852Y-120569298D01*
X135980068Y-120493404D01*
X135933777Y-120441069D01*
X135923129Y-120372015D01*
X135951504Y-120308167D01*
X135980065Y-120283417D01*
X136011262Y-120263816D01*
X136138816Y-120136262D01*
X136234789Y-119983522D01*
X136294368Y-119813255D01*
X136294369Y-119813249D01*
X136314565Y-119634003D01*
X136314565Y-119633996D01*
X136294369Y-119454750D01*
X136294368Y-119454745D01*
X136291169Y-119445602D01*
X136234789Y-119284478D01*
X136138816Y-119131738D01*
X136011262Y-119004184D01*
X135858521Y-118908210D01*
X135688249Y-118848630D01*
X135601330Y-118838837D01*
X135536916Y-118811770D01*
X135527533Y-118803298D01*
X135218590Y-118494355D01*
X135218588Y-118494352D01*
X135099717Y-118375481D01*
X135099709Y-118375475D01*
X134976143Y-118304135D01*
X134976140Y-118304134D01*
X134962783Y-118296422D01*
X134962782Y-118296421D01*
X134950785Y-118293207D01*
X134891125Y-118256842D01*
X134860597Y-118193995D01*
X134863804Y-118138837D01*
X134865031Y-118134613D01*
X134872598Y-118108569D01*
X134875500Y-118071694D01*
X134875500Y-117730061D01*
X134895185Y-117663022D01*
X134947989Y-117617267D01*
X135017147Y-117607323D01*
X135040456Y-117613020D01*
X135075740Y-117625367D01*
X135075750Y-117625369D01*
X135254996Y-117645565D01*
X135255000Y-117645565D01*
X135255004Y-117645565D01*
X135434249Y-117625369D01*
X135434252Y-117625368D01*
X135434255Y-117625368D01*
X135604522Y-117565789D01*
X135757262Y-117469816D01*
X135884816Y-117342262D01*
X135980789Y-117189522D01*
X136040368Y-117019255D01*
X136058762Y-116856003D01*
X136060565Y-116840003D01*
X136060565Y-116839996D01*
X136040369Y-116660750D01*
X136040368Y-116660745D01*
X136020313Y-116603431D01*
X135980789Y-116490478D01*
X135884816Y-116337738D01*
X135757262Y-116210184D01*
X135604523Y-116114211D01*
X135434254Y-116054631D01*
X135434249Y-116054630D01*
X135255004Y-116034435D01*
X135254996Y-116034435D01*
X135075750Y-116054630D01*
X135075739Y-116054633D01*
X135040453Y-116066980D01*
X134970674Y-116070541D01*
X134910048Y-116035811D01*
X134877821Y-115973818D01*
X134875500Y-115949938D01*
X134875500Y-115640313D01*
X134875499Y-115640298D01*
X134872598Y-115603431D01*
X134872594Y-115603419D01*
X134872480Y-115602789D01*
X134872518Y-115602421D01*
X134872101Y-115597114D01*
X134873085Y-115597036D01*
X134879795Y-115533303D01*
X134923515Y-115478802D01*
X134989760Y-115456590D01*
X134994461Y-115456501D01*
X135032054Y-115456501D01*
X135032057Y-115456501D01*
X135184785Y-115415577D01*
X135234904Y-115386639D01*
X135321716Y-115336520D01*
X135400536Y-115257698D01*
X135461857Y-115224215D01*
X135474313Y-115222163D01*
X135561255Y-115212368D01*
X135731522Y-115152789D01*
X135884262Y-115056816D01*
X136011816Y-114929262D01*
X136107789Y-114776522D01*
X136167368Y-114606255D01*
X136167369Y-114606249D01*
X136187565Y-114427003D01*
X136187565Y-114426996D01*
X136167369Y-114247750D01*
X136167368Y-114247745D01*
X136152228Y-114204478D01*
X136107789Y-114077478D01*
X136091615Y-114051738D01*
X136011815Y-113924737D01*
X135884262Y-113797184D01*
X135743435Y-113708696D01*
X135697144Y-113656361D01*
X135686496Y-113587307D01*
X135714871Y-113523459D01*
X135768455Y-113486660D01*
X135799519Y-113475790D01*
X135799518Y-113475790D01*
X135799522Y-113475789D01*
X135952262Y-113379816D01*
X136079816Y-113252262D01*
X136175789Y-113099522D01*
X136235368Y-112929255D01*
X136249931Y-112800003D01*
X136255565Y-112750003D01*
X136255565Y-112749996D01*
X136235369Y-112570750D01*
X136235368Y-112570745D01*
X136193284Y-112450476D01*
X136175789Y-112400478D01*
X136079816Y-112247738D01*
X135952262Y-112120184D01*
X135933775Y-112108568D01*
X135799523Y-112024211D01*
X135629254Y-111964631D01*
X135629249Y-111964630D01*
X135450004Y-111944435D01*
X135449996Y-111944435D01*
X135270750Y-111964630D01*
X135270745Y-111964631D01*
X135100474Y-112024212D01*
X135065471Y-112046206D01*
X134998234Y-112065206D01*
X134931399Y-112044838D01*
X134886186Y-111991569D01*
X134875500Y-111941212D01*
X134875500Y-111640313D01*
X134875499Y-111640298D01*
X134872598Y-111603434D01*
X134872598Y-111603431D01*
X134871967Y-111601259D01*
X134871970Y-111599996D01*
X134871460Y-111597201D01*
X134871978Y-111597106D01*
X134872162Y-111531392D01*
X134910099Y-111472720D01*
X134958944Y-111446884D01*
X135075785Y-111415577D01*
X135125904Y-111386639D01*
X135212716Y-111336520D01*
X135324520Y-111224716D01*
X135324520Y-111224714D01*
X135334728Y-111214507D01*
X135334730Y-111214504D01*
X135518535Y-111030698D01*
X135579856Y-110997215D01*
X135592311Y-110995163D01*
X135679255Y-110985368D01*
X135849522Y-110925789D01*
X136002262Y-110829816D01*
X136129816Y-110702262D01*
X136225789Y-110549522D01*
X136285368Y-110379255D01*
X136285369Y-110379249D01*
X136305565Y-110200003D01*
X136305565Y-110199996D01*
X136285369Y-110020750D01*
X136285368Y-110020745D01*
X136225788Y-109850476D01*
X136129815Y-109697737D01*
X136002262Y-109570184D01*
X135849523Y-109474211D01*
X135792854Y-109454382D01*
X135736078Y-109413660D01*
X135710331Y-109348707D01*
X135723787Y-109280145D01*
X135746128Y-109249659D01*
X135775042Y-109220745D01*
X135989520Y-109006268D01*
X136068577Y-108869336D01*
X136109501Y-108716609D01*
X136109501Y-108558494D01*
X136109501Y-108550899D01*
X136109500Y-108550881D01*
X136109500Y-107516412D01*
X136129185Y-107449373D01*
X136136555Y-107439097D01*
X136138810Y-107436267D01*
X136138816Y-107436262D01*
X136234789Y-107283522D01*
X136294368Y-107113255D01*
X136294782Y-107109580D01*
X136314565Y-106934003D01*
X136314565Y-106933996D01*
X136294369Y-106754750D01*
X136294368Y-106754745D01*
X136234788Y-106584476D01*
X136176513Y-106491732D01*
X136138816Y-106431738D01*
X136058558Y-106351480D01*
X136025073Y-106290157D01*
X136030057Y-106220465D01*
X136071929Y-106164532D01*
X136137393Y-106140115D01*
X136180832Y-106144722D01*
X136297431Y-106178598D01*
X136334306Y-106181500D01*
X136334314Y-106181500D01*
X136765686Y-106181500D01*
X136765694Y-106181500D01*
X136802569Y-106178598D01*
X136802571Y-106178597D01*
X136802573Y-106178597D01*
X136850984Y-106164532D01*
X136960398Y-106132744D01*
X136970213Y-106126939D01*
X136986878Y-106117084D01*
X137054601Y-106099900D01*
X137113122Y-106117084D01*
X137139598Y-106132742D01*
X137139599Y-106132742D01*
X137139602Y-106132744D01*
X137164973Y-106140115D01*
X137297426Y-106178597D01*
X137297429Y-106178597D01*
X137297431Y-106178598D01*
X137334306Y-106181500D01*
X137334314Y-106181500D01*
X137765686Y-106181500D01*
X137765694Y-106181500D01*
X137802569Y-106178598D01*
X137802571Y-106178597D01*
X137802573Y-106178597D01*
X137850984Y-106164532D01*
X137960398Y-106132744D01*
X137970213Y-106126939D01*
X137986878Y-106117084D01*
X138054601Y-106099900D01*
X138113122Y-106117084D01*
X138139598Y-106132742D01*
X138139599Y-106132742D01*
X138139602Y-106132744D01*
X138164973Y-106140115D01*
X138297426Y-106178597D01*
X138297429Y-106178597D01*
X138297431Y-106178598D01*
X138334306Y-106181500D01*
X138334314Y-106181500D01*
X138765686Y-106181500D01*
X138765694Y-106181500D01*
X138802569Y-106178598D01*
X138802571Y-106178597D01*
X138802573Y-106178597D01*
X138850984Y-106164532D01*
X138960398Y-106132744D01*
X138970213Y-106126939D01*
X138986878Y-106117084D01*
X139054601Y-106099900D01*
X139113122Y-106117084D01*
X139139598Y-106132742D01*
X139139599Y-106132742D01*
X139139602Y-106132744D01*
X139164973Y-106140115D01*
X139297426Y-106178597D01*
X139297429Y-106178597D01*
X139297431Y-106178598D01*
X139334306Y-106181500D01*
X139334314Y-106181500D01*
X139765686Y-106181500D01*
X139765694Y-106181500D01*
X139802569Y-106178598D01*
X139802571Y-106178597D01*
X139802573Y-106178597D01*
X139850984Y-106164532D01*
X139960398Y-106132744D01*
X139970213Y-106126939D01*
X139986878Y-106117084D01*
X140054601Y-106099900D01*
X140113122Y-106117084D01*
X140139598Y-106132742D01*
X140139599Y-106132742D01*
X140139602Y-106132744D01*
X140164973Y-106140115D01*
X140297426Y-106178597D01*
X140297429Y-106178597D01*
X140297431Y-106178598D01*
X140334306Y-106181500D01*
X140334314Y-106181500D01*
X140765686Y-106181500D01*
X140765694Y-106181500D01*
X140802569Y-106178598D01*
X140802571Y-106178597D01*
X140802573Y-106178597D01*
X140850984Y-106164532D01*
X140960398Y-106132744D01*
X140970213Y-106126939D01*
X140986878Y-106117084D01*
X141054601Y-106099900D01*
X141113122Y-106117084D01*
X141139598Y-106132742D01*
X141139599Y-106132742D01*
X141139602Y-106132744D01*
X141164973Y-106140115D01*
X141297426Y-106178597D01*
X141297429Y-106178597D01*
X141297431Y-106178598D01*
X141334306Y-106181500D01*
X141334314Y-106181500D01*
X141765686Y-106181500D01*
X141765694Y-106181500D01*
X141802569Y-106178598D01*
X141802571Y-106178597D01*
X141802573Y-106178597D01*
X141850984Y-106164532D01*
X141960398Y-106132744D01*
X141970213Y-106126939D01*
X141986878Y-106117084D01*
X142054601Y-106099900D01*
X142113122Y-106117084D01*
X142139598Y-106132742D01*
X142139599Y-106132742D01*
X142139602Y-106132744D01*
X142164973Y-106140115D01*
X142297426Y-106178597D01*
X142297429Y-106178597D01*
X142297431Y-106178598D01*
X142334306Y-106181500D01*
X142334314Y-106181500D01*
X142765686Y-106181500D01*
X142765694Y-106181500D01*
X142802569Y-106178598D01*
X142802571Y-106178597D01*
X142802573Y-106178597D01*
X142850984Y-106164532D01*
X142960398Y-106132744D01*
X142970213Y-106126939D01*
X142986878Y-106117084D01*
X143054601Y-106099900D01*
X143113122Y-106117084D01*
X143139598Y-106132742D01*
X143139599Y-106132742D01*
X143139602Y-106132744D01*
X143164973Y-106140115D01*
X143297426Y-106178597D01*
X143297429Y-106178597D01*
X143297431Y-106178598D01*
X143334306Y-106181500D01*
X143334314Y-106181500D01*
X143765686Y-106181500D01*
X143765694Y-106181500D01*
X143802569Y-106178598D01*
X143802571Y-106178597D01*
X143802573Y-106178597D01*
X143850984Y-106164532D01*
X143960398Y-106132744D01*
X143970213Y-106126939D01*
X143986878Y-106117084D01*
X144054601Y-106099900D01*
X144113122Y-106117084D01*
X144139598Y-106132742D01*
X144139599Y-106132742D01*
X144139602Y-106132744D01*
X144164973Y-106140115D01*
X144297426Y-106178597D01*
X144297429Y-106178597D01*
X144297431Y-106178598D01*
X144334306Y-106181500D01*
X144334314Y-106181500D01*
X144765686Y-106181500D01*
X144765694Y-106181500D01*
X144802569Y-106178598D01*
X144802571Y-106178597D01*
X144802573Y-106178597D01*
X144850984Y-106164532D01*
X144960398Y-106132744D01*
X144970213Y-106126939D01*
X144986878Y-106117084D01*
X145054601Y-106099900D01*
X145113122Y-106117084D01*
X145139598Y-106132742D01*
X145139599Y-106132742D01*
X145139602Y-106132744D01*
X145164973Y-106140115D01*
X145297426Y-106178597D01*
X145297429Y-106178597D01*
X145297431Y-106178598D01*
X145334306Y-106181500D01*
X145334314Y-106181500D01*
X145765686Y-106181500D01*
X145765694Y-106181500D01*
X145802569Y-106178598D01*
X145802571Y-106178597D01*
X145802573Y-106178597D01*
X145850984Y-106164532D01*
X145960398Y-106132744D01*
X145970213Y-106126939D01*
X145986878Y-106117084D01*
X146054601Y-106099900D01*
X146113122Y-106117084D01*
X146139598Y-106132742D01*
X146139599Y-106132742D01*
X146139602Y-106132744D01*
X146164973Y-106140115D01*
X146297426Y-106178597D01*
X146297429Y-106178597D01*
X146297431Y-106178598D01*
X146334306Y-106181500D01*
X146334314Y-106181500D01*
X146765686Y-106181500D01*
X146765694Y-106181500D01*
X146802569Y-106178598D01*
X146802571Y-106178597D01*
X146802573Y-106178597D01*
X146850984Y-106164532D01*
X146960398Y-106132744D01*
X146970213Y-106126939D01*
X146986878Y-106117084D01*
X147054601Y-106099900D01*
X147113122Y-106117084D01*
X147139598Y-106132742D01*
X147139599Y-106132742D01*
X147139602Y-106132744D01*
X147164973Y-106140115D01*
X147297426Y-106178597D01*
X147297429Y-106178597D01*
X147297431Y-106178598D01*
X147334306Y-106181500D01*
X147334314Y-106181500D01*
X147765686Y-106181500D01*
X147765694Y-106181500D01*
X147802569Y-106178598D01*
X147802571Y-106178597D01*
X147802573Y-106178597D01*
X147850984Y-106164532D01*
X147960398Y-106132744D01*
X148101865Y-106049081D01*
X148218081Y-105932865D01*
X148301744Y-105791398D01*
X148347598Y-105633569D01*
X148350500Y-105596694D01*
X148350500Y-102765306D01*
X148347598Y-102728431D01*
X148301744Y-102570602D01*
X148218081Y-102429135D01*
X148218079Y-102429133D01*
X148218076Y-102429129D01*
X148119981Y-102331034D01*
X148086496Y-102269711D01*
X148090620Y-102202399D01*
X148105368Y-102160255D01*
X148109558Y-102123068D01*
X148125565Y-101981003D01*
X148125565Y-101980996D01*
X148105369Y-101801750D01*
X148105368Y-101801745D01*
X148091344Y-101761666D01*
X148045789Y-101631478D01*
X148039957Y-101622197D01*
X148006582Y-101569080D01*
X147949816Y-101478738D01*
X147822262Y-101351184D01*
X147819580Y-101349499D01*
X147669523Y-101255211D01*
X147499254Y-101195631D01*
X147499249Y-101195630D01*
X147320004Y-101175435D01*
X147319996Y-101175435D01*
X147140750Y-101195630D01*
X147140745Y-101195631D01*
X146970476Y-101255211D01*
X146817737Y-101351184D01*
X146690184Y-101478737D01*
X146594210Y-101631478D01*
X146534630Y-101801750D01*
X146524837Y-101888668D01*
X146497770Y-101953082D01*
X146489299Y-101962465D01*
X146362179Y-102089584D01*
X146300859Y-102123068D01*
X146231167Y-102118084D01*
X146175233Y-102076213D01*
X146150816Y-102010749D01*
X146150500Y-102001902D01*
X146150500Y-101257096D01*
X146170185Y-101190057D01*
X146186814Y-101169419D01*
X147338535Y-100017698D01*
X147399856Y-99984215D01*
X147412311Y-99982163D01*
X147499255Y-99972368D01*
X147669522Y-99912789D01*
X147822262Y-99816816D01*
X147949816Y-99689262D01*
X148045789Y-99536522D01*
X148105368Y-99366255D01*
X148118410Y-99250503D01*
X148125565Y-99187003D01*
X148125565Y-99186996D01*
X148105369Y-99007750D01*
X148105368Y-99007745D01*
X148080431Y-98936480D01*
X148045789Y-98837478D01*
X147949816Y-98684738D01*
X147822262Y-98557184D01*
X147770582Y-98524711D01*
X147669523Y-98461211D01*
X147499254Y-98401631D01*
X147499249Y-98401630D01*
X147320004Y-98381435D01*
X147319996Y-98381435D01*
X147140750Y-98401630D01*
X147140745Y-98401631D01*
X146970476Y-98461211D01*
X146817737Y-98557184D01*
X146690184Y-98684737D01*
X146594210Y-98837478D01*
X146534630Y-99007750D01*
X146524837Y-99094668D01*
X146497770Y-99159082D01*
X146489298Y-99168465D01*
X145362181Y-100295583D01*
X145300858Y-100329068D01*
X145231166Y-100324084D01*
X145175233Y-100282212D01*
X145150816Y-100216748D01*
X145150500Y-100207902D01*
X145150500Y-99717096D01*
X145170185Y-99650057D01*
X145186814Y-99629420D01*
X147148035Y-97668198D01*
X147209356Y-97634715D01*
X147221811Y-97632663D01*
X147308755Y-97622868D01*
X147479022Y-97563289D01*
X147631762Y-97467316D01*
X147759316Y-97339762D01*
X147855289Y-97187022D01*
X147914868Y-97016755D01*
X147922023Y-96953254D01*
X147935065Y-96837503D01*
X147935065Y-96837496D01*
X147914869Y-96658250D01*
X147914868Y-96658245D01*
X147855288Y-96487976D01*
X147759315Y-96335237D01*
X147631762Y-96207684D01*
X147479023Y-96111711D01*
X147308754Y-96052131D01*
X147308749Y-96052130D01*
X147129504Y-96031935D01*
X147129496Y-96031935D01*
X146950250Y-96052130D01*
X146950245Y-96052131D01*
X146779976Y-96111711D01*
X146627237Y-96207684D01*
X146499684Y-96335237D01*
X146403710Y-96487978D01*
X146344130Y-96658250D01*
X146334337Y-96745168D01*
X146307270Y-96809582D01*
X146298798Y-96818965D01*
X144362181Y-98755583D01*
X144300858Y-98789068D01*
X144231166Y-98784084D01*
X144175233Y-98742212D01*
X144150816Y-98676748D01*
X144150500Y-98667902D01*
X144150500Y-98304097D01*
X144170185Y-98237058D01*
X144186819Y-98216416D01*
X145786177Y-96617058D01*
X147402036Y-95001198D01*
X147463357Y-94967715D01*
X147475810Y-94965663D01*
X147562755Y-94955868D01*
X147733022Y-94896289D01*
X147885762Y-94800316D01*
X148013316Y-94672762D01*
X148109289Y-94520022D01*
X148168868Y-94349755D01*
X148181910Y-94234003D01*
X148189065Y-94170503D01*
X148189065Y-94170496D01*
X148168869Y-93991250D01*
X148168868Y-93991245D01*
X148109289Y-93820978D01*
X148013316Y-93668238D01*
X147885762Y-93540684D01*
X147834082Y-93508211D01*
X147733023Y-93444711D01*
X147562754Y-93385131D01*
X147562749Y-93385130D01*
X147383504Y-93364935D01*
X147383496Y-93364935D01*
X147204250Y-93385130D01*
X147204245Y-93385131D01*
X147033976Y-93444711D01*
X146881237Y-93540684D01*
X146753684Y-93668237D01*
X146657710Y-93820978D01*
X146598130Y-93991250D01*
X146588337Y-94078167D01*
X146561270Y-94142581D01*
X146552798Y-94151964D01*
X143442181Y-97262582D01*
X143380858Y-97296067D01*
X143311166Y-97291083D01*
X143255233Y-97249211D01*
X143230816Y-97183747D01*
X143230500Y-97174901D01*
X143230500Y-96684097D01*
X143250185Y-96617058D01*
X143266819Y-96596416D01*
X145279713Y-94583522D01*
X147375536Y-92487698D01*
X147436857Y-92454215D01*
X147449310Y-92452163D01*
X147536255Y-92442368D01*
X147706522Y-92382789D01*
X147859262Y-92286816D01*
X147986816Y-92159262D01*
X148082789Y-92006522D01*
X148142368Y-91836255D01*
X148162565Y-91657000D01*
X148159419Y-91629081D01*
X148142369Y-91477750D01*
X148142368Y-91477745D01*
X148082788Y-91307476D01*
X147986815Y-91154737D01*
X147859262Y-91027184D01*
X147706523Y-90931211D01*
X147536254Y-90871631D01*
X147536249Y-90871630D01*
X147357004Y-90851435D01*
X147356996Y-90851435D01*
X147177750Y-90871630D01*
X147177745Y-90871631D01*
X147007476Y-90931211D01*
X146854737Y-91027184D01*
X146727184Y-91154737D01*
X146631210Y-91307478D01*
X146571630Y-91477750D01*
X146561837Y-91564667D01*
X146534770Y-91629081D01*
X146526298Y-91638464D01*
X142261286Y-95903478D01*
X142149481Y-96015282D01*
X142149479Y-96015285D01*
X142099361Y-96102094D01*
X142099359Y-96102096D01*
X142070425Y-96152209D01*
X142070424Y-96152210D01*
X142070423Y-96152215D01*
X142029499Y-96304943D01*
X142029499Y-96304945D01*
X142029499Y-96473046D01*
X142029500Y-96473059D01*
X142029500Y-98988255D01*
X142009815Y-99055294D01*
X141957011Y-99101049D01*
X141887853Y-99110993D01*
X141866497Y-99105961D01*
X141727799Y-99060001D01*
X141727795Y-99060000D01*
X141625010Y-99049500D01*
X140574998Y-99049500D01*
X140574980Y-99049501D01*
X140472203Y-99060000D01*
X140472200Y-99060001D01*
X140367585Y-99094668D01*
X140313503Y-99112589D01*
X140243676Y-99114991D01*
X140183634Y-99079259D01*
X140152441Y-99016739D01*
X140150500Y-98994883D01*
X140150500Y-97983060D01*
X140150501Y-97983047D01*
X140150501Y-97814944D01*
X140109576Y-97662214D01*
X140109573Y-97662209D01*
X140030524Y-97525290D01*
X140030518Y-97525282D01*
X136720700Y-94215465D01*
X136687215Y-94154142D01*
X136685163Y-94141686D01*
X136675368Y-94054745D01*
X136615789Y-93884478D01*
X136519816Y-93731738D01*
X136392262Y-93604184D01*
X136239523Y-93508211D01*
X136069254Y-93448631D01*
X136069249Y-93448630D01*
X135890004Y-93428435D01*
X135889996Y-93428435D01*
X135710750Y-93448630D01*
X135710745Y-93448631D01*
X135540476Y-93508211D01*
X135387737Y-93604184D01*
X135260184Y-93731737D01*
X135164211Y-93884476D01*
X135104631Y-94054745D01*
X135104630Y-94054750D01*
X135084435Y-94233996D01*
X135084435Y-94234003D01*
X135104630Y-94413249D01*
X135104631Y-94413254D01*
X135164211Y-94583523D01*
X135220284Y-94672762D01*
X135260184Y-94736262D01*
X135387738Y-94863816D01*
X135540478Y-94959789D01*
X135710745Y-95019368D01*
X135797669Y-95029161D01*
X135862080Y-95056226D01*
X135871465Y-95064700D01*
X138913181Y-98106416D01*
X138946666Y-98167739D01*
X138949500Y-98194097D01*
X138949500Y-98684903D01*
X138929815Y-98751942D01*
X138877011Y-98797697D01*
X138807853Y-98807641D01*
X138744297Y-98778616D01*
X138737819Y-98772584D01*
X136720700Y-96755465D01*
X136687215Y-96694142D01*
X136685163Y-96681686D01*
X136675368Y-96594745D01*
X136615789Y-96424478D01*
X136519816Y-96271738D01*
X136392262Y-96144184D01*
X136340582Y-96111711D01*
X136239523Y-96048211D01*
X136069254Y-95988631D01*
X136069249Y-95988630D01*
X135890004Y-95968435D01*
X135889996Y-95968435D01*
X135710750Y-95988630D01*
X135710745Y-95988631D01*
X135540476Y-96048211D01*
X135387737Y-96144184D01*
X135260184Y-96271737D01*
X135164211Y-96424476D01*
X135104631Y-96594745D01*
X135104630Y-96594750D01*
X135084435Y-96773996D01*
X135084435Y-96774003D01*
X135104630Y-96953249D01*
X135104631Y-96953254D01*
X135164211Y-97123523D01*
X135204111Y-97187023D01*
X135260184Y-97276262D01*
X135387738Y-97403816D01*
X135540478Y-97499789D01*
X135710745Y-97559368D01*
X135797669Y-97569161D01*
X135862080Y-97596226D01*
X135871465Y-97604700D01*
X137913181Y-99646416D01*
X137946666Y-99707739D01*
X137949500Y-99734097D01*
X137949500Y-100097903D01*
X137929815Y-100164942D01*
X137877011Y-100210697D01*
X137807853Y-100220641D01*
X137744297Y-100191616D01*
X137737819Y-100185584D01*
X136784200Y-99231965D01*
X136750715Y-99170642D01*
X136748663Y-99158186D01*
X136738868Y-99071245D01*
X136679289Y-98900978D01*
X136583316Y-98748238D01*
X136455762Y-98620684D01*
X136303023Y-98524711D01*
X136132754Y-98465131D01*
X136132749Y-98465130D01*
X135953504Y-98444935D01*
X135953496Y-98444935D01*
X135774250Y-98465130D01*
X135774245Y-98465131D01*
X135603976Y-98524711D01*
X135451237Y-98620684D01*
X135323684Y-98748237D01*
X135227711Y-98900976D01*
X135168131Y-99071245D01*
X135168130Y-99071250D01*
X135147935Y-99250496D01*
X135147935Y-99250503D01*
X135168130Y-99429749D01*
X135168131Y-99429754D01*
X135227711Y-99600023D01*
X135311956Y-99734097D01*
X135323684Y-99752762D01*
X135451238Y-99880316D01*
X135603978Y-99976289D01*
X135774245Y-100035868D01*
X135861169Y-100045661D01*
X135925580Y-100072726D01*
X135934965Y-100081200D01*
X136913181Y-101059416D01*
X136946666Y-101120739D01*
X136949500Y-101147097D01*
X136949500Y-101764903D01*
X136929815Y-101831942D01*
X136877011Y-101877697D01*
X136807853Y-101887641D01*
X136744297Y-101858616D01*
X136737819Y-101852584D01*
X136720700Y-101835465D01*
X136687215Y-101774142D01*
X136685163Y-101761686D01*
X136675368Y-101674745D01*
X136615789Y-101504478D01*
X136519816Y-101351738D01*
X136392262Y-101224184D01*
X136346822Y-101195632D01*
X136239523Y-101128211D01*
X136069254Y-101068631D01*
X136069249Y-101068630D01*
X135890004Y-101048435D01*
X135889996Y-101048435D01*
X135710750Y-101068630D01*
X135710745Y-101068631D01*
X135540476Y-101128211D01*
X135387737Y-101224184D01*
X135260184Y-101351737D01*
X135164211Y-101504476D01*
X135104631Y-101674745D01*
X135104630Y-101674750D01*
X135084435Y-101853996D01*
X135084435Y-101854003D01*
X135104630Y-102033249D01*
X135104631Y-102033254D01*
X135133880Y-102116841D01*
X135137441Y-102186620D01*
X135102712Y-102247248D01*
X135079959Y-102264528D01*
X134998138Y-102312916D01*
X134998129Y-102312923D01*
X134881923Y-102429129D01*
X134881917Y-102429137D01*
X134798255Y-102570603D01*
X134798254Y-102570606D01*
X134752402Y-102728426D01*
X134752401Y-102728432D01*
X134749500Y-102765298D01*
X134749500Y-104976097D01*
X134729815Y-105043136D01*
X134677011Y-105088891D01*
X134607853Y-105098835D01*
X134544297Y-105069810D01*
X134520507Y-105042070D01*
X134429817Y-104897739D01*
X134302262Y-104770184D01*
X134149523Y-104674211D01*
X133979254Y-104614631D01*
X133979249Y-104614630D01*
X133800004Y-104594435D01*
X133799996Y-104594435D01*
X133620750Y-104614630D01*
X133620745Y-104614631D01*
X133450476Y-104674211D01*
X133297737Y-104770184D01*
X133170184Y-104897737D01*
X133074211Y-105050476D01*
X133014631Y-105220745D01*
X133014630Y-105220750D01*
X132994435Y-105399996D01*
X132994435Y-105400003D01*
X133014630Y-105579249D01*
X133014631Y-105579254D01*
X133074211Y-105749524D01*
X133147102Y-105865527D01*
X133166103Y-105932764D01*
X133145736Y-105999599D01*
X133092468Y-106044814D01*
X133042109Y-106055500D01*
X131459298Y-106055500D01*
X131422432Y-106058401D01*
X131422426Y-106058402D01*
X131264606Y-106104254D01*
X131264603Y-106104255D01*
X131123137Y-106187917D01*
X131123129Y-106187923D01*
X131006923Y-106304129D01*
X131006917Y-106304137D01*
X130941232Y-106415206D01*
X130890163Y-106462889D01*
X130821421Y-106475393D01*
X130756832Y-106448748D01*
X130716902Y-106391412D01*
X130710500Y-106352085D01*
X130710500Y-90709500D01*
X130730185Y-90642461D01*
X130782989Y-90596706D01*
X130834500Y-90585500D01*
X152275500Y-90585500D01*
X152342539Y-90605185D01*
G37*
%TD.AperFunction*%
%TA.AperFunction,Conductor*%
G36*
X152353168Y-125246342D02*
G01*
X152393098Y-125303677D01*
X152399500Y-125343005D01*
X152399500Y-140290500D01*
X152379815Y-140357539D01*
X152327011Y-140403294D01*
X152275500Y-140414500D01*
X148120619Y-140414500D01*
X148053580Y-140394815D01*
X148007825Y-140342011D01*
X147997881Y-140272853D01*
X148015625Y-140224528D01*
X148045788Y-140176523D01*
X148045789Y-140176522D01*
X148105368Y-140006255D01*
X148115162Y-139919331D01*
X148125565Y-139827003D01*
X148125565Y-139826996D01*
X148105369Y-139647750D01*
X148105368Y-139647745D01*
X148045788Y-139477476D01*
X147949815Y-139324737D01*
X147822262Y-139197184D01*
X147669521Y-139101210D01*
X147499249Y-139041630D01*
X147412331Y-139031837D01*
X147347917Y-139004770D01*
X147338534Y-138996298D01*
X143186819Y-134844583D01*
X143153334Y-134783260D01*
X143150500Y-134756902D01*
X143150500Y-134393097D01*
X143170185Y-134326058D01*
X143222989Y-134280303D01*
X143292147Y-134270359D01*
X143355703Y-134299384D01*
X143362181Y-134305416D01*
X146362298Y-137305533D01*
X146395783Y-137366856D01*
X146397837Y-137379330D01*
X146407630Y-137466249D01*
X146467210Y-137636521D01*
X146563184Y-137789262D01*
X146690738Y-137916816D01*
X146843478Y-138012789D01*
X147013745Y-138072368D01*
X147013750Y-138072369D01*
X147192996Y-138092565D01*
X147193000Y-138092565D01*
X147193004Y-138092565D01*
X147372249Y-138072369D01*
X147372252Y-138072368D01*
X147372255Y-138072368D01*
X147542522Y-138012789D01*
X147695262Y-137916816D01*
X147822816Y-137789262D01*
X147918789Y-137636522D01*
X147978368Y-137466255D01*
X147988162Y-137379330D01*
X147998565Y-137287003D01*
X147998565Y-137286996D01*
X147978369Y-137107750D01*
X147978368Y-137107745D01*
X147918788Y-136937476D01*
X147822815Y-136784737D01*
X147695262Y-136657184D01*
X147542521Y-136561210D01*
X147372249Y-136501630D01*
X147285330Y-136491837D01*
X147220916Y-136464770D01*
X147211533Y-136456298D01*
X144186819Y-133431584D01*
X144153334Y-133370261D01*
X144150500Y-133343903D01*
X144150500Y-132726097D01*
X144170185Y-132659058D01*
X144222989Y-132613303D01*
X144292147Y-132603359D01*
X144355703Y-132632384D01*
X144362181Y-132638416D01*
X146489298Y-134765534D01*
X146522783Y-134826857D01*
X146524837Y-134839331D01*
X146534630Y-134926249D01*
X146594210Y-135096521D01*
X146690184Y-135249262D01*
X146817738Y-135376816D01*
X146970478Y-135472789D01*
X147140745Y-135532368D01*
X147140750Y-135532369D01*
X147319996Y-135552565D01*
X147320000Y-135552565D01*
X147320004Y-135552565D01*
X147499249Y-135532369D01*
X147499252Y-135532368D01*
X147499255Y-135532368D01*
X147669522Y-135472789D01*
X147822262Y-135376816D01*
X147949816Y-135249262D01*
X148045789Y-135096522D01*
X148105368Y-134926255D01*
X148115162Y-134839331D01*
X148125565Y-134747003D01*
X148125565Y-134746996D01*
X148105369Y-134567750D01*
X148105368Y-134567745D01*
X148045788Y-134397476D01*
X148000913Y-134326058D01*
X147949816Y-134244738D01*
X147822262Y-134117184D01*
X147784945Y-134093736D01*
X147669521Y-134021210D01*
X147499249Y-133961630D01*
X147412331Y-133951837D01*
X147347917Y-133924770D01*
X147338534Y-133916298D01*
X145186819Y-131764583D01*
X145153334Y-131703260D01*
X145150500Y-131676902D01*
X145150500Y-131186097D01*
X145170185Y-131119058D01*
X145222989Y-131073303D01*
X145292147Y-131063359D01*
X145355703Y-131092384D01*
X145362181Y-131098416D01*
X146489298Y-132225533D01*
X146522783Y-132286856D01*
X146524837Y-132299330D01*
X146534630Y-132386249D01*
X146594210Y-132556521D01*
X146629889Y-132613303D01*
X146690184Y-132709262D01*
X146817738Y-132836816D01*
X146970478Y-132932789D01*
X147140745Y-132992368D01*
X147140750Y-132992369D01*
X147319996Y-133012565D01*
X147320000Y-133012565D01*
X147320004Y-133012565D01*
X147499249Y-132992369D01*
X147499252Y-132992368D01*
X147499255Y-132992368D01*
X147669522Y-132932789D01*
X147822262Y-132836816D01*
X147949816Y-132709262D01*
X148045789Y-132556522D01*
X148105368Y-132386255D01*
X148115162Y-132299330D01*
X148125565Y-132207003D01*
X148125565Y-132206996D01*
X148105369Y-132027750D01*
X148105368Y-132027745D01*
X148045788Y-131857476D01*
X147949815Y-131704737D01*
X147822262Y-131577184D01*
X147669521Y-131481210D01*
X147499249Y-131421630D01*
X147412330Y-131411837D01*
X147347916Y-131384770D01*
X147338533Y-131376298D01*
X146186819Y-130224584D01*
X146153334Y-130163261D01*
X146150500Y-130136903D01*
X146150500Y-129650461D01*
X146170185Y-129583422D01*
X146222989Y-129537667D01*
X146292147Y-129527723D01*
X146296776Y-129528478D01*
X146297427Y-129528596D01*
X146297431Y-129528598D01*
X146297434Y-129528598D01*
X146302115Y-129529453D01*
X146364528Y-129560861D01*
X146367520Y-129563755D01*
X146489298Y-129685533D01*
X146522783Y-129746856D01*
X146524837Y-129759330D01*
X146534630Y-129846249D01*
X146594210Y-130016521D01*
X146669851Y-130136903D01*
X146690184Y-130169262D01*
X146817738Y-130296816D01*
X146970478Y-130392789D01*
X147140745Y-130452368D01*
X147140750Y-130452369D01*
X147319996Y-130472565D01*
X147320000Y-130472565D01*
X147320004Y-130472565D01*
X147499249Y-130452369D01*
X147499252Y-130452368D01*
X147499255Y-130452368D01*
X147669522Y-130392789D01*
X147822262Y-130296816D01*
X147949816Y-130169262D01*
X148045789Y-130016522D01*
X148105368Y-129846255D01*
X148115162Y-129759330D01*
X148125565Y-129667003D01*
X148125565Y-129666996D01*
X148105369Y-129487748D01*
X148103820Y-129480963D01*
X148106558Y-129480337D01*
X148103655Y-129423204D01*
X148136569Y-129364376D01*
X148218081Y-129282865D01*
X148301744Y-129141398D01*
X148347598Y-128983569D01*
X148350500Y-128946694D01*
X148350500Y-126115306D01*
X148347598Y-126078431D01*
X148301744Y-125920602D01*
X148237947Y-125812727D01*
X148220765Y-125745005D01*
X148242925Y-125678743D01*
X148278708Y-125644615D01*
X148302262Y-125629816D01*
X148364194Y-125567883D01*
X148425513Y-125534401D01*
X148495205Y-125539385D01*
X148514987Y-125548832D01*
X148614602Y-125607744D01*
X148630587Y-125612388D01*
X148772426Y-125653597D01*
X148772429Y-125653597D01*
X148772431Y-125653598D01*
X148809306Y-125656500D01*
X148809314Y-125656500D01*
X151640686Y-125656500D01*
X151640694Y-125656500D01*
X151677569Y-125653598D01*
X151677571Y-125653597D01*
X151677573Y-125653597D01*
X151751062Y-125632246D01*
X151835398Y-125607744D01*
X151976865Y-125524081D01*
X152093081Y-125407865D01*
X152168768Y-125279883D01*
X152219837Y-125232201D01*
X152288578Y-125219697D01*
X152353168Y-125246342D01*
G37*
%TD.AperFunction*%
%TD*%
M02*
