%TF.GenerationSoftware,KiCad,Pcbnew,8.0.7*%
%TF.CreationDate,2025-03-12T15:38:42-05:00*%
%TF.ProjectId,YM3802-F-to-X,594d3338-3032-42d4-962d-746f2d582e6b,rev?*%
%TF.SameCoordinates,Original*%
%TF.FileFunction,Legend,Top*%
%TF.FilePolarity,Positive*%
%FSLAX46Y46*%
G04 Gerber Fmt 4.6, Leading zero omitted, Abs format (unit mm)*
G04 Created by KiCad (PCBNEW 8.0.7) date 2025-03-12 15:38:42*
%MOMM*%
%LPD*%
G01*
G04 APERTURE LIST*
%ADD10C,0.300000*%
%ADD11C,0.150000*%
%ADD12C,0.120000*%
G04 APERTURE END LIST*
D10*
X141248457Y-110568225D02*
X140534171Y-110568225D01*
X142034171Y-110068225D02*
X141248457Y-110568225D01*
X141248457Y-110568225D02*
X142034171Y-111068225D01*
X140534171Y-111568224D02*
X142034171Y-111568224D01*
X142034171Y-111568224D02*
X140962742Y-112068224D01*
X140962742Y-112068224D02*
X142034171Y-112568224D01*
X142034171Y-112568224D02*
X140534171Y-112568224D01*
X142034171Y-113139653D02*
X142034171Y-114068225D01*
X142034171Y-114068225D02*
X141462742Y-113568225D01*
X141462742Y-113568225D02*
X141462742Y-113782510D01*
X141462742Y-113782510D02*
X141391314Y-113925368D01*
X141391314Y-113925368D02*
X141319885Y-113996796D01*
X141319885Y-113996796D02*
X141177028Y-114068225D01*
X141177028Y-114068225D02*
X140819885Y-114068225D01*
X140819885Y-114068225D02*
X140677028Y-113996796D01*
X140677028Y-113996796D02*
X140605600Y-113925368D01*
X140605600Y-113925368D02*
X140534171Y-113782510D01*
X140534171Y-113782510D02*
X140534171Y-113353939D01*
X140534171Y-113353939D02*
X140605600Y-113211082D01*
X140605600Y-113211082D02*
X140677028Y-113139653D01*
X141391314Y-114925367D02*
X141462742Y-114782510D01*
X141462742Y-114782510D02*
X141534171Y-114711081D01*
X141534171Y-114711081D02*
X141677028Y-114639653D01*
X141677028Y-114639653D02*
X141748457Y-114639653D01*
X141748457Y-114639653D02*
X141891314Y-114711081D01*
X141891314Y-114711081D02*
X141962742Y-114782510D01*
X141962742Y-114782510D02*
X142034171Y-114925367D01*
X142034171Y-114925367D02*
X142034171Y-115211081D01*
X142034171Y-115211081D02*
X141962742Y-115353939D01*
X141962742Y-115353939D02*
X141891314Y-115425367D01*
X141891314Y-115425367D02*
X141748457Y-115496796D01*
X141748457Y-115496796D02*
X141677028Y-115496796D01*
X141677028Y-115496796D02*
X141534171Y-115425367D01*
X141534171Y-115425367D02*
X141462742Y-115353939D01*
X141462742Y-115353939D02*
X141391314Y-115211081D01*
X141391314Y-115211081D02*
X141391314Y-114925367D01*
X141391314Y-114925367D02*
X141319885Y-114782510D01*
X141319885Y-114782510D02*
X141248457Y-114711081D01*
X141248457Y-114711081D02*
X141105600Y-114639653D01*
X141105600Y-114639653D02*
X140819885Y-114639653D01*
X140819885Y-114639653D02*
X140677028Y-114711081D01*
X140677028Y-114711081D02*
X140605600Y-114782510D01*
X140605600Y-114782510D02*
X140534171Y-114925367D01*
X140534171Y-114925367D02*
X140534171Y-115211081D01*
X140534171Y-115211081D02*
X140605600Y-115353939D01*
X140605600Y-115353939D02*
X140677028Y-115425367D01*
X140677028Y-115425367D02*
X140819885Y-115496796D01*
X140819885Y-115496796D02*
X141105600Y-115496796D01*
X141105600Y-115496796D02*
X141248457Y-115425367D01*
X141248457Y-115425367D02*
X141319885Y-115353939D01*
X141319885Y-115353939D02*
X141391314Y-115211081D01*
X142034171Y-116425367D02*
X142034171Y-116568224D01*
X142034171Y-116568224D02*
X141962742Y-116711081D01*
X141962742Y-116711081D02*
X141891314Y-116782510D01*
X141891314Y-116782510D02*
X141748457Y-116853938D01*
X141748457Y-116853938D02*
X141462742Y-116925367D01*
X141462742Y-116925367D02*
X141105600Y-116925367D01*
X141105600Y-116925367D02*
X140819885Y-116853938D01*
X140819885Y-116853938D02*
X140677028Y-116782510D01*
X140677028Y-116782510D02*
X140605600Y-116711081D01*
X140605600Y-116711081D02*
X140534171Y-116568224D01*
X140534171Y-116568224D02*
X140534171Y-116425367D01*
X140534171Y-116425367D02*
X140605600Y-116282510D01*
X140605600Y-116282510D02*
X140677028Y-116211081D01*
X140677028Y-116211081D02*
X140819885Y-116139652D01*
X140819885Y-116139652D02*
X141105600Y-116068224D01*
X141105600Y-116068224D02*
X141462742Y-116068224D01*
X141462742Y-116068224D02*
X141748457Y-116139652D01*
X141748457Y-116139652D02*
X141891314Y-116211081D01*
X141891314Y-116211081D02*
X141962742Y-116282510D01*
X141962742Y-116282510D02*
X142034171Y-116425367D01*
X141891314Y-117496795D02*
X141962742Y-117568223D01*
X141962742Y-117568223D02*
X142034171Y-117711081D01*
X142034171Y-117711081D02*
X142034171Y-118068223D01*
X142034171Y-118068223D02*
X141962742Y-118211081D01*
X141962742Y-118211081D02*
X141891314Y-118282509D01*
X141891314Y-118282509D02*
X141748457Y-118353938D01*
X141748457Y-118353938D02*
X141605600Y-118353938D01*
X141605600Y-118353938D02*
X141391314Y-118282509D01*
X141391314Y-118282509D02*
X140534171Y-117425366D01*
X140534171Y-117425366D02*
X140534171Y-118353938D01*
X141105600Y-118996794D02*
X141105600Y-120139652D01*
X141319885Y-121353937D02*
X141319885Y-120853937D01*
X140534171Y-120853937D02*
X142034171Y-120853937D01*
X142034171Y-120853937D02*
X142034171Y-121568223D01*
D11*
X139779580Y-99266666D02*
X139827200Y-99314285D01*
X139827200Y-99314285D02*
X139874819Y-99457142D01*
X139874819Y-99457142D02*
X139874819Y-99552380D01*
X139874819Y-99552380D02*
X139827200Y-99695237D01*
X139827200Y-99695237D02*
X139731961Y-99790475D01*
X139731961Y-99790475D02*
X139636723Y-99838094D01*
X139636723Y-99838094D02*
X139446247Y-99885713D01*
X139446247Y-99885713D02*
X139303390Y-99885713D01*
X139303390Y-99885713D02*
X139112914Y-99838094D01*
X139112914Y-99838094D02*
X139017676Y-99790475D01*
X139017676Y-99790475D02*
X138922438Y-99695237D01*
X138922438Y-99695237D02*
X138874819Y-99552380D01*
X138874819Y-99552380D02*
X138874819Y-99457142D01*
X138874819Y-99457142D02*
X138922438Y-99314285D01*
X138922438Y-99314285D02*
X138970057Y-99266666D01*
X139874819Y-98314285D02*
X139874819Y-98885713D01*
X139874819Y-98599999D02*
X138874819Y-98599999D01*
X138874819Y-98599999D02*
X139017676Y-98695237D01*
X139017676Y-98695237D02*
X139112914Y-98790475D01*
X139112914Y-98790475D02*
X139160533Y-98885713D01*
D12*
%TO.C,U2*%
X134440000Y-105746000D02*
X134440000Y-106296000D01*
X134440000Y-125966000D02*
X134440000Y-125416000D01*
X134990000Y-105746000D02*
X134440000Y-105746000D01*
X134990000Y-125966000D02*
X134440000Y-125966000D01*
X148110000Y-105746000D02*
X148660000Y-105746000D01*
X148110000Y-125966000D02*
X148660000Y-125966000D01*
X148660000Y-105746000D02*
X148660000Y-106296000D01*
X148660000Y-125966000D02*
X148660000Y-125416000D01*
X133825000Y-106296000D02*
X133485000Y-105826000D01*
X134165000Y-105826000D01*
X133825000Y-106296000D01*
G36*
X133825000Y-106296000D02*
G01*
X133485000Y-105826000D01*
X134165000Y-105826000D01*
X133825000Y-106296000D01*
G37*
%TO.C,C1*%
X140365000Y-99361252D02*
X140365000Y-98838748D01*
X141835000Y-99361252D02*
X141835000Y-98838748D01*
%TD*%
M02*
