%TF.GenerationSoftware,KiCad,Pcbnew,8.0.7*%
%TF.CreationDate,2025-03-12T15:38:42-05:00*%
%TF.ProjectId,YM3802-F-to-X,594d3338-3032-42d4-962d-746f2d582e6b,rev?*%
%TF.SameCoordinates,Original*%
%TF.FileFunction,Legend,Bot*%
%TF.FilePolarity,Positive*%
%FSLAX46Y46*%
G04 Gerber Fmt 4.6, Leading zero omitted, Abs format (unit mm)*
G04 Created by KiCad (PCBNEW 8.0.7) date 2025-03-12 15:38:42*
%MOMM*%
%LPD*%
G01*
G04 APERTURE LIST*
%ADD10C,0.150000*%
G04 APERTURE END LIST*
D10*
X140925387Y-127476189D02*
X141306340Y-127476189D01*
X140506340Y-127209522D02*
X140925387Y-127476189D01*
X140925387Y-127476189D02*
X140506340Y-127742855D01*
X141306340Y-128009522D02*
X140506340Y-128009522D01*
X140506340Y-128009522D02*
X141077768Y-128276188D01*
X141077768Y-128276188D02*
X140506340Y-128542855D01*
X140506340Y-128542855D02*
X141306340Y-128542855D01*
X140506340Y-128847617D02*
X140506340Y-129342855D01*
X140506340Y-129342855D02*
X140811102Y-129076189D01*
X140811102Y-129076189D02*
X140811102Y-129190474D01*
X140811102Y-129190474D02*
X140849197Y-129266665D01*
X140849197Y-129266665D02*
X140887292Y-129304760D01*
X140887292Y-129304760D02*
X140963483Y-129342855D01*
X140963483Y-129342855D02*
X141153959Y-129342855D01*
X141153959Y-129342855D02*
X141230149Y-129304760D01*
X141230149Y-129304760D02*
X141268245Y-129266665D01*
X141268245Y-129266665D02*
X141306340Y-129190474D01*
X141306340Y-129190474D02*
X141306340Y-128961903D01*
X141306340Y-128961903D02*
X141268245Y-128885712D01*
X141268245Y-128885712D02*
X141230149Y-128847617D01*
X140849197Y-129799998D02*
X140811102Y-129723808D01*
X140811102Y-129723808D02*
X140773006Y-129685713D01*
X140773006Y-129685713D02*
X140696816Y-129647617D01*
X140696816Y-129647617D02*
X140658721Y-129647617D01*
X140658721Y-129647617D02*
X140582530Y-129685713D01*
X140582530Y-129685713D02*
X140544435Y-129723808D01*
X140544435Y-129723808D02*
X140506340Y-129799998D01*
X140506340Y-129799998D02*
X140506340Y-129952379D01*
X140506340Y-129952379D02*
X140544435Y-130028570D01*
X140544435Y-130028570D02*
X140582530Y-130066665D01*
X140582530Y-130066665D02*
X140658721Y-130104760D01*
X140658721Y-130104760D02*
X140696816Y-130104760D01*
X140696816Y-130104760D02*
X140773006Y-130066665D01*
X140773006Y-130066665D02*
X140811102Y-130028570D01*
X140811102Y-130028570D02*
X140849197Y-129952379D01*
X140849197Y-129952379D02*
X140849197Y-129799998D01*
X140849197Y-129799998D02*
X140887292Y-129723808D01*
X140887292Y-129723808D02*
X140925387Y-129685713D01*
X140925387Y-129685713D02*
X141001578Y-129647617D01*
X141001578Y-129647617D02*
X141153959Y-129647617D01*
X141153959Y-129647617D02*
X141230149Y-129685713D01*
X141230149Y-129685713D02*
X141268245Y-129723808D01*
X141268245Y-129723808D02*
X141306340Y-129799998D01*
X141306340Y-129799998D02*
X141306340Y-129952379D01*
X141306340Y-129952379D02*
X141268245Y-130028570D01*
X141268245Y-130028570D02*
X141230149Y-130066665D01*
X141230149Y-130066665D02*
X141153959Y-130104760D01*
X141153959Y-130104760D02*
X141001578Y-130104760D01*
X141001578Y-130104760D02*
X140925387Y-130066665D01*
X140925387Y-130066665D02*
X140887292Y-130028570D01*
X140887292Y-130028570D02*
X140849197Y-129952379D01*
X140506340Y-130599999D02*
X140506340Y-130676189D01*
X140506340Y-130676189D02*
X140544435Y-130752380D01*
X140544435Y-130752380D02*
X140582530Y-130790475D01*
X140582530Y-130790475D02*
X140658721Y-130828570D01*
X140658721Y-130828570D02*
X140811102Y-130866665D01*
X140811102Y-130866665D02*
X141001578Y-130866665D01*
X141001578Y-130866665D02*
X141153959Y-130828570D01*
X141153959Y-130828570D02*
X141230149Y-130790475D01*
X141230149Y-130790475D02*
X141268245Y-130752380D01*
X141268245Y-130752380D02*
X141306340Y-130676189D01*
X141306340Y-130676189D02*
X141306340Y-130599999D01*
X141306340Y-130599999D02*
X141268245Y-130523808D01*
X141268245Y-130523808D02*
X141230149Y-130485713D01*
X141230149Y-130485713D02*
X141153959Y-130447618D01*
X141153959Y-130447618D02*
X141001578Y-130409522D01*
X141001578Y-130409522D02*
X140811102Y-130409522D01*
X140811102Y-130409522D02*
X140658721Y-130447618D01*
X140658721Y-130447618D02*
X140582530Y-130485713D01*
X140582530Y-130485713D02*
X140544435Y-130523808D01*
X140544435Y-130523808D02*
X140506340Y-130599999D01*
X140582530Y-131171427D02*
X140544435Y-131209523D01*
X140544435Y-131209523D02*
X140506340Y-131285713D01*
X140506340Y-131285713D02*
X140506340Y-131476189D01*
X140506340Y-131476189D02*
X140544435Y-131552380D01*
X140544435Y-131552380D02*
X140582530Y-131590475D01*
X140582530Y-131590475D02*
X140658721Y-131628570D01*
X140658721Y-131628570D02*
X140734911Y-131628570D01*
X140734911Y-131628570D02*
X140849197Y-131590475D01*
X140849197Y-131590475D02*
X141306340Y-131133332D01*
X141306340Y-131133332D02*
X141306340Y-131628570D01*
X141077768Y-132542856D02*
X141077768Y-132923809D01*
X141306340Y-132466666D02*
X140506340Y-132733333D01*
X140506340Y-132733333D02*
X141306340Y-132999999D01*
X141306340Y-133609523D02*
X140506340Y-133609523D01*
X141268245Y-133609523D02*
X141306340Y-133533332D01*
X141306340Y-133533332D02*
X141306340Y-133380951D01*
X141306340Y-133380951D02*
X141268245Y-133304761D01*
X141268245Y-133304761D02*
X141230149Y-133266666D01*
X141230149Y-133266666D02*
X141153959Y-133228570D01*
X141153959Y-133228570D02*
X140925387Y-133228570D01*
X140925387Y-133228570D02*
X140849197Y-133266666D01*
X140849197Y-133266666D02*
X140811102Y-133304761D01*
X140811102Y-133304761D02*
X140773006Y-133380951D01*
X140773006Y-133380951D02*
X140773006Y-133533332D01*
X140773006Y-133533332D02*
X140811102Y-133609523D01*
X141306340Y-134333333D02*
X140887292Y-134333333D01*
X140887292Y-134333333D02*
X140811102Y-134295238D01*
X140811102Y-134295238D02*
X140773006Y-134219047D01*
X140773006Y-134219047D02*
X140773006Y-134066666D01*
X140773006Y-134066666D02*
X140811102Y-133990476D01*
X141268245Y-134333333D02*
X141306340Y-134257142D01*
X141306340Y-134257142D02*
X141306340Y-134066666D01*
X141306340Y-134066666D02*
X141268245Y-133990476D01*
X141268245Y-133990476D02*
X141192054Y-133952380D01*
X141192054Y-133952380D02*
X141115864Y-133952380D01*
X141115864Y-133952380D02*
X141039673Y-133990476D01*
X141039673Y-133990476D02*
X141001578Y-134066666D01*
X141001578Y-134066666D02*
X141001578Y-134257142D01*
X141001578Y-134257142D02*
X140963483Y-134333333D01*
X140773006Y-134714286D02*
X141573006Y-134714286D01*
X140811102Y-134714286D02*
X140773006Y-134790476D01*
X140773006Y-134790476D02*
X140773006Y-134942857D01*
X140773006Y-134942857D02*
X140811102Y-135019048D01*
X140811102Y-135019048D02*
X140849197Y-135057143D01*
X140849197Y-135057143D02*
X140925387Y-135095238D01*
X140925387Y-135095238D02*
X141153959Y-135095238D01*
X141153959Y-135095238D02*
X141230149Y-135057143D01*
X141230149Y-135057143D02*
X141268245Y-135019048D01*
X141268245Y-135019048D02*
X141306340Y-134942857D01*
X141306340Y-134942857D02*
X141306340Y-134790476D01*
X141306340Y-134790476D02*
X141268245Y-134714286D01*
X140773006Y-135323810D02*
X140773006Y-135628572D01*
X140506340Y-135438096D02*
X141192054Y-135438096D01*
X141192054Y-135438096D02*
X141268245Y-135476191D01*
X141268245Y-135476191D02*
X141306340Y-135552381D01*
X141306340Y-135552381D02*
X141306340Y-135628572D01*
X141268245Y-136200001D02*
X141306340Y-136123810D01*
X141306340Y-136123810D02*
X141306340Y-135971429D01*
X141306340Y-135971429D02*
X141268245Y-135895239D01*
X141268245Y-135895239D02*
X141192054Y-135857143D01*
X141192054Y-135857143D02*
X140887292Y-135857143D01*
X140887292Y-135857143D02*
X140811102Y-135895239D01*
X140811102Y-135895239D02*
X140773006Y-135971429D01*
X140773006Y-135971429D02*
X140773006Y-136123810D01*
X140773006Y-136123810D02*
X140811102Y-136200001D01*
X140811102Y-136200001D02*
X140887292Y-136238096D01*
X140887292Y-136238096D02*
X140963483Y-136238096D01*
X140963483Y-136238096D02*
X141039673Y-135857143D01*
X141306340Y-136580953D02*
X140773006Y-136580953D01*
X140925387Y-136580953D02*
X140849197Y-136619048D01*
X140849197Y-136619048D02*
X140811102Y-136657143D01*
X140811102Y-136657143D02*
X140773006Y-136733334D01*
X140773006Y-136733334D02*
X140773006Y-136809524D01*
X140773006Y-137609524D02*
X141306340Y-137800000D01*
X141306340Y-137800000D02*
X140773006Y-137990477D01*
X140506340Y-138447620D02*
X140506340Y-138523810D01*
X140506340Y-138523810D02*
X140544435Y-138600001D01*
X140544435Y-138600001D02*
X140582530Y-138638096D01*
X140582530Y-138638096D02*
X140658721Y-138676191D01*
X140658721Y-138676191D02*
X140811102Y-138714286D01*
X140811102Y-138714286D02*
X141001578Y-138714286D01*
X141001578Y-138714286D02*
X141153959Y-138676191D01*
X141153959Y-138676191D02*
X141230149Y-138638096D01*
X141230149Y-138638096D02*
X141268245Y-138600001D01*
X141268245Y-138600001D02*
X141306340Y-138523810D01*
X141306340Y-138523810D02*
X141306340Y-138447620D01*
X141306340Y-138447620D02*
X141268245Y-138371429D01*
X141268245Y-138371429D02*
X141230149Y-138333334D01*
X141230149Y-138333334D02*
X141153959Y-138295239D01*
X141153959Y-138295239D02*
X141001578Y-138257143D01*
X141001578Y-138257143D02*
X140811102Y-138257143D01*
X140811102Y-138257143D02*
X140658721Y-138295239D01*
X140658721Y-138295239D02*
X140582530Y-138333334D01*
X140582530Y-138333334D02*
X140544435Y-138371429D01*
X140544435Y-138371429D02*
X140506340Y-138447620D01*
X142594295Y-131285714D02*
X141794295Y-131285714D01*
X142099057Y-131285714D02*
X142060961Y-131361904D01*
X142060961Y-131361904D02*
X142060961Y-131514285D01*
X142060961Y-131514285D02*
X142099057Y-131590476D01*
X142099057Y-131590476D02*
X142137152Y-131628571D01*
X142137152Y-131628571D02*
X142213342Y-131666666D01*
X142213342Y-131666666D02*
X142441914Y-131666666D01*
X142441914Y-131666666D02*
X142518104Y-131628571D01*
X142518104Y-131628571D02*
X142556200Y-131590476D01*
X142556200Y-131590476D02*
X142594295Y-131514285D01*
X142594295Y-131514285D02*
X142594295Y-131361904D01*
X142594295Y-131361904D02*
X142556200Y-131285714D01*
X142060961Y-131933333D02*
X142594295Y-132123809D01*
X142060961Y-132314286D02*
X142594295Y-132123809D01*
X142594295Y-132123809D02*
X142784771Y-132047619D01*
X142784771Y-132047619D02*
X142822866Y-132009524D01*
X142822866Y-132009524D02*
X142860961Y-131933333D01*
X142594295Y-133228572D02*
X141794295Y-133228572D01*
X142594295Y-133571429D02*
X142175247Y-133571429D01*
X142175247Y-133571429D02*
X142099057Y-133533334D01*
X142099057Y-133533334D02*
X142060961Y-133457143D01*
X142060961Y-133457143D02*
X142060961Y-133342857D01*
X142060961Y-133342857D02*
X142099057Y-133266667D01*
X142099057Y-133266667D02*
X142137152Y-133228572D01*
X142594295Y-133952382D02*
X141794295Y-133952382D01*
X142289533Y-134028572D02*
X142594295Y-134257144D01*
X142060961Y-134257144D02*
X142365723Y-133952382D01*
X142594295Y-134600001D02*
X142060961Y-134600001D01*
X142213342Y-134600001D02*
X142137152Y-134638096D01*
X142137152Y-134638096D02*
X142099057Y-134676191D01*
X142099057Y-134676191D02*
X142060961Y-134752382D01*
X142060961Y-134752382D02*
X142060961Y-134828572D01*
X142209904Y-88251819D02*
X142209904Y-89061342D01*
X142209904Y-89061342D02*
X142162285Y-89156580D01*
X142162285Y-89156580D02*
X142114666Y-89204200D01*
X142114666Y-89204200D02*
X142019428Y-89251819D01*
X142019428Y-89251819D02*
X141828952Y-89251819D01*
X141828952Y-89251819D02*
X141733714Y-89204200D01*
X141733714Y-89204200D02*
X141686095Y-89156580D01*
X141686095Y-89156580D02*
X141638476Y-89061342D01*
X141638476Y-89061342D02*
X141638476Y-88251819D01*
X140638476Y-89251819D02*
X141209904Y-89251819D01*
X140924190Y-89251819D02*
X140924190Y-88251819D01*
X140924190Y-88251819D02*
X141019428Y-88394676D01*
X141019428Y-88394676D02*
X141114666Y-88489914D01*
X141114666Y-88489914D02*
X141209904Y-88537533D01*
M02*
