%TF.GenerationSoftware,KiCad,Pcbnew,8.0.7*%
%TF.CreationDate,2025-03-12T15:38:39-05:00*%
%TF.ProjectId,YM3802-F-to-X,594d3338-3032-42d4-962d-746f2d582e6b,rev?*%
%TF.SameCoordinates,Original*%
%TF.FileFunction,Drillmap*%
%TF.FilePolarity,Positive*%
%FSLAX45Y45*%
G04 Gerber Fmt 4.5, Leading zero omitted, Abs format (unit mm)*
G04 Created by KiCad (PCBNEW 8.0.7) date 2025-03-12 15:38:39*
%MOMM*%
%LPD*%
G01*
G04 APERTURE LIST*
%ADD10C,0.050000*%
%ADD11C,0.200000*%
G04 APERTURE END LIST*
D10*
X13021000Y-9008500D02*
X15290000Y-9008500D01*
X15290000Y-14091500D01*
X13021000Y-14091500D01*
X13021000Y-9008500D01*
D11*
X13279277Y-14405484D02*
X13279277Y-14205484D01*
X13279277Y-14205484D02*
X13326896Y-14205484D01*
X13326896Y-14205484D02*
X13355467Y-14215008D01*
X13355467Y-14215008D02*
X13374515Y-14234055D01*
X13374515Y-14234055D02*
X13384039Y-14253103D01*
X13384039Y-14253103D02*
X13393562Y-14291198D01*
X13393562Y-14291198D02*
X13393562Y-14319769D01*
X13393562Y-14319769D02*
X13384039Y-14357865D01*
X13384039Y-14357865D02*
X13374515Y-14376912D01*
X13374515Y-14376912D02*
X13355467Y-14395960D01*
X13355467Y-14395960D02*
X13326896Y-14405484D01*
X13326896Y-14405484D02*
X13279277Y-14405484D01*
X13479277Y-14405484D02*
X13479277Y-14272150D01*
X13479277Y-14310246D02*
X13488801Y-14291198D01*
X13488801Y-14291198D02*
X13498324Y-14281674D01*
X13498324Y-14281674D02*
X13517372Y-14272150D01*
X13517372Y-14272150D02*
X13536420Y-14272150D01*
X13603086Y-14405484D02*
X13603086Y-14272150D01*
X13603086Y-14205484D02*
X13593562Y-14215008D01*
X13593562Y-14215008D02*
X13603086Y-14224531D01*
X13603086Y-14224531D02*
X13612610Y-14215008D01*
X13612610Y-14215008D02*
X13603086Y-14205484D01*
X13603086Y-14205484D02*
X13603086Y-14224531D01*
X13726896Y-14405484D02*
X13707848Y-14395960D01*
X13707848Y-14395960D02*
X13698324Y-14376912D01*
X13698324Y-14376912D02*
X13698324Y-14205484D01*
X13831658Y-14405484D02*
X13812610Y-14395960D01*
X13812610Y-14395960D02*
X13803086Y-14376912D01*
X13803086Y-14376912D02*
X13803086Y-14205484D01*
X14060229Y-14405484D02*
X14060229Y-14205484D01*
X14060229Y-14205484D02*
X14126896Y-14348341D01*
X14126896Y-14348341D02*
X14193562Y-14205484D01*
X14193562Y-14205484D02*
X14193562Y-14405484D01*
X14374515Y-14405484D02*
X14374515Y-14300722D01*
X14374515Y-14300722D02*
X14364991Y-14281674D01*
X14364991Y-14281674D02*
X14345943Y-14272150D01*
X14345943Y-14272150D02*
X14307848Y-14272150D01*
X14307848Y-14272150D02*
X14288801Y-14281674D01*
X14374515Y-14395960D02*
X14355467Y-14405484D01*
X14355467Y-14405484D02*
X14307848Y-14405484D01*
X14307848Y-14405484D02*
X14288801Y-14395960D01*
X14288801Y-14395960D02*
X14279277Y-14376912D01*
X14279277Y-14376912D02*
X14279277Y-14357865D01*
X14279277Y-14357865D02*
X14288801Y-14338817D01*
X14288801Y-14338817D02*
X14307848Y-14329293D01*
X14307848Y-14329293D02*
X14355467Y-14329293D01*
X14355467Y-14329293D02*
X14374515Y-14319769D01*
X14469753Y-14272150D02*
X14469753Y-14472150D01*
X14469753Y-14281674D02*
X14488801Y-14272150D01*
X14488801Y-14272150D02*
X14526896Y-14272150D01*
X14526896Y-14272150D02*
X14545943Y-14281674D01*
X14545943Y-14281674D02*
X14555467Y-14291198D01*
X14555467Y-14291198D02*
X14564991Y-14310246D01*
X14564991Y-14310246D02*
X14564991Y-14367388D01*
X14564991Y-14367388D02*
X14555467Y-14386436D01*
X14555467Y-14386436D02*
X14545943Y-14395960D01*
X14545943Y-14395960D02*
X14526896Y-14405484D01*
X14526896Y-14405484D02*
X14488801Y-14405484D01*
X14488801Y-14405484D02*
X14469753Y-14395960D01*
X14650705Y-14386436D02*
X14660229Y-14395960D01*
X14660229Y-14395960D02*
X14650705Y-14405484D01*
X14650705Y-14405484D02*
X14641182Y-14395960D01*
X14641182Y-14395960D02*
X14650705Y-14386436D01*
X14650705Y-14386436D02*
X14650705Y-14405484D01*
X14650705Y-14281674D02*
X14660229Y-14291198D01*
X14660229Y-14291198D02*
X14650705Y-14300722D01*
X14650705Y-14300722D02*
X14641182Y-14291198D01*
X14641182Y-14291198D02*
X14650705Y-14281674D01*
X14650705Y-14281674D02*
X14650705Y-14300722D01*
M02*
