M48
; DRILL file {KiCad 8.0.7} date 2025-03-12T15:38:39-0500
; FORMAT={-:-/ absolute / inch / decimal}
; #@! TF.CreationDate,2025-03-12T15:38:39-05:00
; #@! TF.GenerationSoftware,Kicad,Pcbnew,8.0.7
; #@! TF.FileFunction,Plated,1,2,PTH
FMAT,2
INCH
; #@! TA.AperFunction,Plated,PTH,ViaDrill
T1C0.0118
; #@! TA.AperFunction,Plated,PTH,ViaDrill
T2C0.0157
%
G90
G05
T1
X5.2677Y-4.1496
X5.325Y-4.6
X5.33Y-4.505
X5.3327Y-4.439
X5.3346Y-4.3386
X5.335Y-4.21
X5.335Y-4.71
X5.3386Y-4.7717
X5.3386Y-4.8228
X5.3386Y-4.9094
X5.34Y-5.105
X5.35Y-3.71
X5.35Y-3.81
X5.35Y-4.01
X5.35Y-5.205
X5.35Y-5.305
X5.35Y-5.405
X5.35Y-5.505
X5.3525Y-3.9075
X5.4331Y-5.4724
X5.5512Y-3.622
X5.7087Y-5.4724
X5.7925Y-3.8125
X5.795Y-5.405
X5.7953Y-4.248
X5.8Y-3.905
X5.8Y-4.015
X5.8Y-5.105
X5.8Y-5.205
X5.8Y-5.305
X5.8Y-5.505
X5.8015Y-3.6085
X5.8025Y-3.7075
X5.8031Y-4.4409
X5.8071Y-4.3622
X5.8071Y-4.7795
X5.8071Y-4.8543
X5.811Y-4.3071
X5.815Y-4.6006
X5.815Y-4.705
X5.8189Y-4.9213
X5.82Y-4.51
T2
X5.4291Y-4.8465
X5.4409Y-4.2835
X5.5728Y-4.0079
X5.7126Y-4.8504
X5.7283Y-4.2835
X5.815Y-3.6575
X5.8189Y-5.4567
M30
