%TF.GenerationSoftware,KiCad,Pcbnew,8.0.7*%
%TF.CreationDate,2025-03-12T15:38:39-05:00*%
%TF.ProjectId,YM3802-F-to-X,594d3338-3032-42d4-962d-746f2d582e6b,rev?*%
%TF.SameCoordinates,Original*%
%TF.FileFunction,Drillmap*%
%TF.FilePolarity,Positive*%
%FSLAX45Y45*%
G04 Gerber Fmt 4.5, Leading zero omitted, Abs format (unit mm)*
G04 Created by KiCad (PCBNEW 8.0.7) date 2025-03-12 15:38:39*
%MOMM*%
%LPD*%
G01*
G04 APERTURE LIST*
%ADD10C,0.050000*%
%ADD11C,0.200000*%
%ADD12C,0.100000*%
G04 APERTURE END LIST*
D10*
X13021000Y-9008500D02*
X15290000Y-9008500D01*
X15290000Y-14091500D01*
X13021000Y-14091500D01*
X13021000Y-9008500D01*
D11*
D12*
X13365000Y-10525000D02*
X13395000Y-10555000D01*
X13395000Y-10525000D02*
X13365000Y-10555000D01*
X13510500Y-11669000D02*
X13540500Y-11699000D01*
X13540500Y-11669000D02*
X13510500Y-11699000D01*
X13523200Y-11427700D02*
X13553200Y-11457700D01*
X13553200Y-11427700D02*
X13523200Y-11457700D01*
X13530000Y-11260000D02*
X13560000Y-11290000D01*
X13560000Y-11260000D02*
X13530000Y-11290000D01*
X13535000Y-11005000D02*
X13565000Y-11035000D01*
X13565000Y-11005000D02*
X13535000Y-11035000D01*
X13535900Y-10678400D02*
X13565900Y-10708400D01*
X13565900Y-10678400D02*
X13535900Y-10708400D01*
X13535900Y-11948400D02*
X13565900Y-11978400D01*
X13565900Y-11948400D02*
X13535900Y-11978400D01*
X13545000Y-12105000D02*
X13575000Y-12135000D01*
X13575000Y-12105000D02*
X13545000Y-12135000D01*
X13545000Y-12235000D02*
X13575000Y-12265000D01*
X13575000Y-12235000D02*
X13545000Y-12265000D01*
X13545000Y-12455000D02*
X13575000Y-12485000D01*
X13575000Y-12455000D02*
X13545000Y-12485000D01*
X13548600Y-12951700D02*
X13578600Y-12981700D01*
X13578600Y-12951700D02*
X13548600Y-12981700D01*
X13574000Y-9408400D02*
X13604000Y-9438400D01*
X13604000Y-9408400D02*
X13574000Y-9438400D01*
X13574000Y-9662400D02*
X13604000Y-9692400D01*
X13604000Y-9662400D02*
X13574000Y-9692400D01*
X13574000Y-10170400D02*
X13604000Y-10200400D01*
X13604000Y-10170400D02*
X13574000Y-10200400D01*
X13574000Y-13205700D02*
X13604000Y-13235700D01*
X13604000Y-13205700D02*
X13574000Y-13235700D01*
X13574000Y-13459700D02*
X13604000Y-13489700D01*
X13604000Y-13459700D02*
X13574000Y-13489700D01*
X13574000Y-13713700D02*
X13604000Y-13743700D01*
X13604000Y-13713700D02*
X13574000Y-13743700D01*
X13574000Y-13967700D02*
X13604000Y-13997700D01*
X13604000Y-13967700D02*
X13574000Y-13997700D01*
X13580350Y-9910050D02*
X13610350Y-9940050D01*
X13610350Y-9910050D02*
X13580350Y-9940050D01*
X13785000Y-13885000D02*
X13815000Y-13915000D01*
X13815000Y-13885000D02*
X13785000Y-13915000D01*
X14085000Y-9185000D02*
X14115000Y-9215000D01*
X14115000Y-9185000D02*
X14085000Y-9215000D01*
X14485000Y-13885000D02*
X14515000Y-13915000D01*
X14515000Y-13885000D02*
X14485000Y-13915000D01*
X14697950Y-9668750D02*
X14727950Y-9698750D01*
X14727950Y-9668750D02*
X14697950Y-9698750D01*
X14704300Y-13713700D02*
X14734300Y-13743700D01*
X14734300Y-13713700D02*
X14704300Y-13743700D01*
X14705000Y-10775000D02*
X14735000Y-10805000D01*
X14735000Y-10775000D02*
X14705000Y-10805000D01*
X14717000Y-9903700D02*
X14747000Y-9933700D01*
X14747000Y-9903700D02*
X14717000Y-9933700D01*
X14717000Y-10183100D02*
X14747000Y-10213100D01*
X14747000Y-10183100D02*
X14717000Y-10213100D01*
X14717000Y-12951700D02*
X14747000Y-12981700D01*
X14747000Y-12951700D02*
X14717000Y-12981700D01*
X14717000Y-13205700D02*
X14747000Y-13235700D01*
X14747000Y-13205700D02*
X14717000Y-13235700D01*
X14717000Y-13459700D02*
X14747000Y-13489700D01*
X14747000Y-13459700D02*
X14717000Y-13489700D01*
X14717000Y-13967700D02*
X14747000Y-13997700D01*
X14747000Y-13967700D02*
X14717000Y-13997700D01*
X14720700Y-9150700D02*
X14750700Y-9180700D01*
X14750700Y-9150700D02*
X14720700Y-9180700D01*
X14723350Y-9402050D02*
X14753350Y-9432050D01*
X14753350Y-9402050D02*
X14723350Y-9432050D01*
X14725000Y-11265000D02*
X14755000Y-11295000D01*
X14755000Y-11265000D02*
X14725000Y-11295000D01*
X14735000Y-11065000D02*
X14765000Y-11095000D01*
X14765000Y-11065000D02*
X14735000Y-11095000D01*
X14735000Y-12125000D02*
X14765000Y-12155000D01*
X14765000Y-12125000D02*
X14735000Y-12155000D01*
X14735000Y-12315000D02*
X14765000Y-12345000D01*
X14765000Y-12315000D02*
X14735000Y-12345000D01*
X14745000Y-10925000D02*
X14775000Y-10955000D01*
X14775000Y-10925000D02*
X14745000Y-10955000D01*
X14755100Y-11670600D02*
X14785100Y-11700600D01*
X14785100Y-11670600D02*
X14755100Y-11700600D01*
X14755100Y-11935700D02*
X14785100Y-11965700D01*
X14785100Y-11935700D02*
X14755100Y-11965700D01*
X14765000Y-12485000D02*
X14795000Y-12515000D01*
X14795000Y-12485000D02*
X14765000Y-12515000D01*
X14767800Y-11440400D02*
X14797800Y-11470400D01*
X14797800Y-11440400D02*
X14767800Y-11470400D01*
X13810000Y-12310000D02*
G75*
G02*
X13770000Y-12310000I-20000J0D01*
G01*
X13770000Y-12310000D02*
G75*
G02*
X13810000Y-12310000I20000J0D01*
G01*
X13840000Y-10880000D02*
G75*
G02*
X13800000Y-10880000I-20000J0D01*
G01*
X13800000Y-10880000D02*
G75*
G02*
X13840000Y-10880000I20000J0D01*
G01*
X14175000Y-10180000D02*
G75*
G02*
X14135000Y-10180000I-20000J0D01*
G01*
X14135000Y-10180000D02*
G75*
G02*
X14175000Y-10180000I20000J0D01*
G01*
X14530000Y-12320000D02*
G75*
G02*
X14490000Y-12320000I-20000J0D01*
G01*
X14490000Y-12320000D02*
G75*
G02*
X14530000Y-12320000I20000J0D01*
G01*
X14570000Y-10880000D02*
G75*
G02*
X14530000Y-10880000I-20000J0D01*
G01*
X14530000Y-10880000D02*
G75*
G02*
X14570000Y-10880000I20000J0D01*
G01*
X14790000Y-9290000D02*
G75*
G02*
X14750000Y-9290000I-20000J0D01*
G01*
X14750000Y-9290000D02*
G75*
G02*
X14790000Y-9290000I20000J0D01*
G01*
X14800000Y-13860000D02*
G75*
G02*
X14760000Y-13860000I-20000J0D01*
G01*
X14760000Y-13860000D02*
G75*
G02*
X14800000Y-13860000I20000J0D01*
G01*
D11*
X13279277Y-14405484D02*
X13279277Y-14205484D01*
X13279277Y-14205484D02*
X13326896Y-14205484D01*
X13326896Y-14205484D02*
X13355467Y-14215008D01*
X13355467Y-14215008D02*
X13374515Y-14234055D01*
X13374515Y-14234055D02*
X13384039Y-14253103D01*
X13384039Y-14253103D02*
X13393562Y-14291198D01*
X13393562Y-14291198D02*
X13393562Y-14319769D01*
X13393562Y-14319769D02*
X13384039Y-14357865D01*
X13384039Y-14357865D02*
X13374515Y-14376912D01*
X13374515Y-14376912D02*
X13355467Y-14395960D01*
X13355467Y-14395960D02*
X13326896Y-14405484D01*
X13326896Y-14405484D02*
X13279277Y-14405484D01*
X13479277Y-14405484D02*
X13479277Y-14272150D01*
X13479277Y-14310246D02*
X13488801Y-14291198D01*
X13488801Y-14291198D02*
X13498324Y-14281674D01*
X13498324Y-14281674D02*
X13517372Y-14272150D01*
X13517372Y-14272150D02*
X13536420Y-14272150D01*
X13603086Y-14405484D02*
X13603086Y-14272150D01*
X13603086Y-14205484D02*
X13593562Y-14215008D01*
X13593562Y-14215008D02*
X13603086Y-14224531D01*
X13603086Y-14224531D02*
X13612610Y-14215008D01*
X13612610Y-14215008D02*
X13603086Y-14205484D01*
X13603086Y-14205484D02*
X13603086Y-14224531D01*
X13726896Y-14405484D02*
X13707848Y-14395960D01*
X13707848Y-14395960D02*
X13698324Y-14376912D01*
X13698324Y-14376912D02*
X13698324Y-14205484D01*
X13831658Y-14405484D02*
X13812610Y-14395960D01*
X13812610Y-14395960D02*
X13803086Y-14376912D01*
X13803086Y-14376912D02*
X13803086Y-14205484D01*
X14060229Y-14405484D02*
X14060229Y-14205484D01*
X14060229Y-14205484D02*
X14126896Y-14348341D01*
X14126896Y-14348341D02*
X14193562Y-14205484D01*
X14193562Y-14205484D02*
X14193562Y-14405484D01*
X14374515Y-14405484D02*
X14374515Y-14300722D01*
X14374515Y-14300722D02*
X14364991Y-14281674D01*
X14364991Y-14281674D02*
X14345943Y-14272150D01*
X14345943Y-14272150D02*
X14307848Y-14272150D01*
X14307848Y-14272150D02*
X14288801Y-14281674D01*
X14374515Y-14395960D02*
X14355467Y-14405484D01*
X14355467Y-14405484D02*
X14307848Y-14405484D01*
X14307848Y-14405484D02*
X14288801Y-14395960D01*
X14288801Y-14395960D02*
X14279277Y-14376912D01*
X14279277Y-14376912D02*
X14279277Y-14357865D01*
X14279277Y-14357865D02*
X14288801Y-14338817D01*
X14288801Y-14338817D02*
X14307848Y-14329293D01*
X14307848Y-14329293D02*
X14355467Y-14329293D01*
X14355467Y-14329293D02*
X14374515Y-14319769D01*
X14469753Y-14272150D02*
X14469753Y-14472150D01*
X14469753Y-14281674D02*
X14488801Y-14272150D01*
X14488801Y-14272150D02*
X14526896Y-14272150D01*
X14526896Y-14272150D02*
X14545943Y-14281674D01*
X14545943Y-14281674D02*
X14555467Y-14291198D01*
X14555467Y-14291198D02*
X14564991Y-14310246D01*
X14564991Y-14310246D02*
X14564991Y-14367388D01*
X14564991Y-14367388D02*
X14555467Y-14386436D01*
X14555467Y-14386436D02*
X14545943Y-14395960D01*
X14545943Y-14395960D02*
X14526896Y-14405484D01*
X14526896Y-14405484D02*
X14488801Y-14405484D01*
X14488801Y-14405484D02*
X14469753Y-14395960D01*
X14650705Y-14386436D02*
X14660229Y-14395960D01*
X14660229Y-14395960D02*
X14650705Y-14405484D01*
X14650705Y-14405484D02*
X14641182Y-14395960D01*
X14641182Y-14395960D02*
X14650705Y-14386436D01*
X14650705Y-14386436D02*
X14650705Y-14405484D01*
X14650705Y-14281674D02*
X14660229Y-14291198D01*
X14660229Y-14291198D02*
X14650705Y-14300722D01*
X14650705Y-14300722D02*
X14641182Y-14291198D01*
X14641182Y-14291198D02*
X14650705Y-14281674D01*
X14650705Y-14281674D02*
X14650705Y-14300722D01*
D12*
X12988500Y-14719000D02*
X13018500Y-14749000D01*
X13018500Y-14719000D02*
X12988500Y-14749000D01*
D11*
X13317372Y-14625484D02*
X13336420Y-14625484D01*
X13336420Y-14625484D02*
X13355467Y-14635008D01*
X13355467Y-14635008D02*
X13364991Y-14644531D01*
X13364991Y-14644531D02*
X13374515Y-14663579D01*
X13374515Y-14663579D02*
X13384039Y-14701674D01*
X13384039Y-14701674D02*
X13384039Y-14749293D01*
X13384039Y-14749293D02*
X13374515Y-14787388D01*
X13374515Y-14787388D02*
X13364991Y-14806436D01*
X13364991Y-14806436D02*
X13355467Y-14815960D01*
X13355467Y-14815960D02*
X13336420Y-14825484D01*
X13336420Y-14825484D02*
X13317372Y-14825484D01*
X13317372Y-14825484D02*
X13298324Y-14815960D01*
X13298324Y-14815960D02*
X13288801Y-14806436D01*
X13288801Y-14806436D02*
X13279277Y-14787388D01*
X13279277Y-14787388D02*
X13269753Y-14749293D01*
X13269753Y-14749293D02*
X13269753Y-14701674D01*
X13269753Y-14701674D02*
X13279277Y-14663579D01*
X13279277Y-14663579D02*
X13288801Y-14644531D01*
X13288801Y-14644531D02*
X13298324Y-14635008D01*
X13298324Y-14635008D02*
X13317372Y-14625484D01*
X13469753Y-14806436D02*
X13479277Y-14815960D01*
X13479277Y-14815960D02*
X13469753Y-14825484D01*
X13469753Y-14825484D02*
X13460229Y-14815960D01*
X13460229Y-14815960D02*
X13469753Y-14806436D01*
X13469753Y-14806436D02*
X13469753Y-14825484D01*
X13545943Y-14625484D02*
X13669753Y-14625484D01*
X13669753Y-14625484D02*
X13603086Y-14701674D01*
X13603086Y-14701674D02*
X13631658Y-14701674D01*
X13631658Y-14701674D02*
X13650705Y-14711198D01*
X13650705Y-14711198D02*
X13660229Y-14720722D01*
X13660229Y-14720722D02*
X13669753Y-14739769D01*
X13669753Y-14739769D02*
X13669753Y-14787388D01*
X13669753Y-14787388D02*
X13660229Y-14806436D01*
X13660229Y-14806436D02*
X13650705Y-14815960D01*
X13650705Y-14815960D02*
X13631658Y-14825484D01*
X13631658Y-14825484D02*
X13574515Y-14825484D01*
X13574515Y-14825484D02*
X13555467Y-14815960D01*
X13555467Y-14815960D02*
X13545943Y-14806436D01*
X13793562Y-14625484D02*
X13812610Y-14625484D01*
X13812610Y-14625484D02*
X13831658Y-14635008D01*
X13831658Y-14635008D02*
X13841182Y-14644531D01*
X13841182Y-14644531D02*
X13850705Y-14663579D01*
X13850705Y-14663579D02*
X13860229Y-14701674D01*
X13860229Y-14701674D02*
X13860229Y-14749293D01*
X13860229Y-14749293D02*
X13850705Y-14787388D01*
X13850705Y-14787388D02*
X13841182Y-14806436D01*
X13841182Y-14806436D02*
X13831658Y-14815960D01*
X13831658Y-14815960D02*
X13812610Y-14825484D01*
X13812610Y-14825484D02*
X13793562Y-14825484D01*
X13793562Y-14825484D02*
X13774515Y-14815960D01*
X13774515Y-14815960D02*
X13764991Y-14806436D01*
X13764991Y-14806436D02*
X13755467Y-14787388D01*
X13755467Y-14787388D02*
X13745943Y-14749293D01*
X13745943Y-14749293D02*
X13745943Y-14701674D01*
X13745943Y-14701674D02*
X13755467Y-14663579D01*
X13755467Y-14663579D02*
X13764991Y-14644531D01*
X13764991Y-14644531D02*
X13774515Y-14635008D01*
X13774515Y-14635008D02*
X13793562Y-14625484D01*
X13984039Y-14625484D02*
X14003086Y-14625484D01*
X14003086Y-14625484D02*
X14022134Y-14635008D01*
X14022134Y-14635008D02*
X14031658Y-14644531D01*
X14031658Y-14644531D02*
X14041182Y-14663579D01*
X14041182Y-14663579D02*
X14050705Y-14701674D01*
X14050705Y-14701674D02*
X14050705Y-14749293D01*
X14050705Y-14749293D02*
X14041182Y-14787388D01*
X14041182Y-14787388D02*
X14031658Y-14806436D01*
X14031658Y-14806436D02*
X14022134Y-14815960D01*
X14022134Y-14815960D02*
X14003086Y-14825484D01*
X14003086Y-14825484D02*
X13984039Y-14825484D01*
X13984039Y-14825484D02*
X13964991Y-14815960D01*
X13964991Y-14815960D02*
X13955467Y-14806436D01*
X13955467Y-14806436D02*
X13945943Y-14787388D01*
X13945943Y-14787388D02*
X13936420Y-14749293D01*
X13936420Y-14749293D02*
X13936420Y-14701674D01*
X13936420Y-14701674D02*
X13945943Y-14663579D01*
X13945943Y-14663579D02*
X13955467Y-14644531D01*
X13955467Y-14644531D02*
X13964991Y-14635008D01*
X13964991Y-14635008D02*
X13984039Y-14625484D01*
X14136420Y-14825484D02*
X14136420Y-14692150D01*
X14136420Y-14711198D02*
X14145943Y-14701674D01*
X14145943Y-14701674D02*
X14164991Y-14692150D01*
X14164991Y-14692150D02*
X14193563Y-14692150D01*
X14193563Y-14692150D02*
X14212610Y-14701674D01*
X14212610Y-14701674D02*
X14222134Y-14720722D01*
X14222134Y-14720722D02*
X14222134Y-14825484D01*
X14222134Y-14720722D02*
X14231658Y-14701674D01*
X14231658Y-14701674D02*
X14250705Y-14692150D01*
X14250705Y-14692150D02*
X14279277Y-14692150D01*
X14279277Y-14692150D02*
X14298324Y-14701674D01*
X14298324Y-14701674D02*
X14307848Y-14720722D01*
X14307848Y-14720722D02*
X14307848Y-14825484D01*
X14403086Y-14825484D02*
X14403086Y-14692150D01*
X14403086Y-14711198D02*
X14412610Y-14701674D01*
X14412610Y-14701674D02*
X14431658Y-14692150D01*
X14431658Y-14692150D02*
X14460229Y-14692150D01*
X14460229Y-14692150D02*
X14479277Y-14701674D01*
X14479277Y-14701674D02*
X14488801Y-14720722D01*
X14488801Y-14720722D02*
X14488801Y-14825484D01*
X14488801Y-14720722D02*
X14498324Y-14701674D01*
X14498324Y-14701674D02*
X14517372Y-14692150D01*
X14517372Y-14692150D02*
X14545943Y-14692150D01*
X14545943Y-14692150D02*
X14564991Y-14701674D01*
X14564991Y-14701674D02*
X14574515Y-14720722D01*
X14574515Y-14720722D02*
X14574515Y-14825484D01*
X14964991Y-14615960D02*
X14793563Y-14873103D01*
X15222134Y-14625484D02*
X15241182Y-14625484D01*
X15241182Y-14625484D02*
X15260229Y-14635008D01*
X15260229Y-14635008D02*
X15269753Y-14644531D01*
X15269753Y-14644531D02*
X15279277Y-14663579D01*
X15279277Y-14663579D02*
X15288801Y-14701674D01*
X15288801Y-14701674D02*
X15288801Y-14749293D01*
X15288801Y-14749293D02*
X15279277Y-14787388D01*
X15279277Y-14787388D02*
X15269753Y-14806436D01*
X15269753Y-14806436D02*
X15260229Y-14815960D01*
X15260229Y-14815960D02*
X15241182Y-14825484D01*
X15241182Y-14825484D02*
X15222134Y-14825484D01*
X15222134Y-14825484D02*
X15203086Y-14815960D01*
X15203086Y-14815960D02*
X15193563Y-14806436D01*
X15193563Y-14806436D02*
X15184039Y-14787388D01*
X15184039Y-14787388D02*
X15174515Y-14749293D01*
X15174515Y-14749293D02*
X15174515Y-14701674D01*
X15174515Y-14701674D02*
X15184039Y-14663579D01*
X15184039Y-14663579D02*
X15193563Y-14644531D01*
X15193563Y-14644531D02*
X15203086Y-14635008D01*
X15203086Y-14635008D02*
X15222134Y-14625484D01*
X15374515Y-14806436D02*
X15384039Y-14815960D01*
X15384039Y-14815960D02*
X15374515Y-14825484D01*
X15374515Y-14825484D02*
X15364991Y-14815960D01*
X15364991Y-14815960D02*
X15374515Y-14806436D01*
X15374515Y-14806436D02*
X15374515Y-14825484D01*
X15507848Y-14625484D02*
X15526896Y-14625484D01*
X15526896Y-14625484D02*
X15545944Y-14635008D01*
X15545944Y-14635008D02*
X15555467Y-14644531D01*
X15555467Y-14644531D02*
X15564991Y-14663579D01*
X15564991Y-14663579D02*
X15574515Y-14701674D01*
X15574515Y-14701674D02*
X15574515Y-14749293D01*
X15574515Y-14749293D02*
X15564991Y-14787388D01*
X15564991Y-14787388D02*
X15555467Y-14806436D01*
X15555467Y-14806436D02*
X15545944Y-14815960D01*
X15545944Y-14815960D02*
X15526896Y-14825484D01*
X15526896Y-14825484D02*
X15507848Y-14825484D01*
X15507848Y-14825484D02*
X15488801Y-14815960D01*
X15488801Y-14815960D02*
X15479277Y-14806436D01*
X15479277Y-14806436D02*
X15469753Y-14787388D01*
X15469753Y-14787388D02*
X15460229Y-14749293D01*
X15460229Y-14749293D02*
X15460229Y-14701674D01*
X15460229Y-14701674D02*
X15469753Y-14663579D01*
X15469753Y-14663579D02*
X15479277Y-14644531D01*
X15479277Y-14644531D02*
X15488801Y-14635008D01*
X15488801Y-14635008D02*
X15507848Y-14625484D01*
X15764991Y-14825484D02*
X15650706Y-14825484D01*
X15707848Y-14825484D02*
X15707848Y-14625484D01*
X15707848Y-14625484D02*
X15688801Y-14654055D01*
X15688801Y-14654055D02*
X15669753Y-14673103D01*
X15669753Y-14673103D02*
X15650706Y-14682627D01*
X15955467Y-14825484D02*
X15841182Y-14825484D01*
X15898325Y-14825484D02*
X15898325Y-14625484D01*
X15898325Y-14625484D02*
X15879277Y-14654055D01*
X15879277Y-14654055D02*
X15860229Y-14673103D01*
X15860229Y-14673103D02*
X15841182Y-14682627D01*
X16069753Y-14711198D02*
X16050706Y-14701674D01*
X16050706Y-14701674D02*
X16041182Y-14692150D01*
X16041182Y-14692150D02*
X16031658Y-14673103D01*
X16031658Y-14673103D02*
X16031658Y-14663579D01*
X16031658Y-14663579D02*
X16041182Y-14644531D01*
X16041182Y-14644531D02*
X16050706Y-14635008D01*
X16050706Y-14635008D02*
X16069753Y-14625484D01*
X16069753Y-14625484D02*
X16107848Y-14625484D01*
X16107848Y-14625484D02*
X16126896Y-14635008D01*
X16126896Y-14635008D02*
X16136420Y-14644531D01*
X16136420Y-14644531D02*
X16145944Y-14663579D01*
X16145944Y-14663579D02*
X16145944Y-14673103D01*
X16145944Y-14673103D02*
X16136420Y-14692150D01*
X16136420Y-14692150D02*
X16126896Y-14701674D01*
X16126896Y-14701674D02*
X16107848Y-14711198D01*
X16107848Y-14711198D02*
X16069753Y-14711198D01*
X16069753Y-14711198D02*
X16050706Y-14720722D01*
X16050706Y-14720722D02*
X16041182Y-14730246D01*
X16041182Y-14730246D02*
X16031658Y-14749293D01*
X16031658Y-14749293D02*
X16031658Y-14787388D01*
X16031658Y-14787388D02*
X16041182Y-14806436D01*
X16041182Y-14806436D02*
X16050706Y-14815960D01*
X16050706Y-14815960D02*
X16069753Y-14825484D01*
X16069753Y-14825484D02*
X16107848Y-14825484D01*
X16107848Y-14825484D02*
X16126896Y-14815960D01*
X16126896Y-14815960D02*
X16136420Y-14806436D01*
X16136420Y-14806436D02*
X16145944Y-14787388D01*
X16145944Y-14787388D02*
X16145944Y-14749293D01*
X16145944Y-14749293D02*
X16136420Y-14730246D01*
X16136420Y-14730246D02*
X16126896Y-14720722D01*
X16126896Y-14720722D02*
X16107848Y-14711198D01*
X16222134Y-14625484D02*
X16222134Y-14663579D01*
X16298325Y-14625484D02*
X16298325Y-14663579D01*
X16593563Y-14901674D02*
X16584039Y-14892150D01*
X16584039Y-14892150D02*
X16564991Y-14863579D01*
X16564991Y-14863579D02*
X16555468Y-14844531D01*
X16555468Y-14844531D02*
X16545944Y-14815960D01*
X16545944Y-14815960D02*
X16536420Y-14768341D01*
X16536420Y-14768341D02*
X16536420Y-14730246D01*
X16536420Y-14730246D02*
X16545944Y-14682627D01*
X16545944Y-14682627D02*
X16555468Y-14654055D01*
X16555468Y-14654055D02*
X16564991Y-14635008D01*
X16564991Y-14635008D02*
X16584039Y-14606436D01*
X16584039Y-14606436D02*
X16593563Y-14596912D01*
X16755468Y-14692150D02*
X16755468Y-14825484D01*
X16707848Y-14615960D02*
X16660229Y-14758817D01*
X16660229Y-14758817D02*
X16784039Y-14758817D01*
X16850706Y-14644531D02*
X16860230Y-14635008D01*
X16860230Y-14635008D02*
X16879277Y-14625484D01*
X16879277Y-14625484D02*
X16926896Y-14625484D01*
X16926896Y-14625484D02*
X16945944Y-14635008D01*
X16945944Y-14635008D02*
X16955468Y-14644531D01*
X16955468Y-14644531D02*
X16964991Y-14663579D01*
X16964991Y-14663579D02*
X16964991Y-14682627D01*
X16964991Y-14682627D02*
X16955468Y-14711198D01*
X16955468Y-14711198D02*
X16841182Y-14825484D01*
X16841182Y-14825484D02*
X16964991Y-14825484D01*
X17203087Y-14825484D02*
X17203087Y-14625484D01*
X17288801Y-14825484D02*
X17288801Y-14720722D01*
X17288801Y-14720722D02*
X17279277Y-14701674D01*
X17279277Y-14701674D02*
X17260230Y-14692150D01*
X17260230Y-14692150D02*
X17231658Y-14692150D01*
X17231658Y-14692150D02*
X17212611Y-14701674D01*
X17212611Y-14701674D02*
X17203087Y-14711198D01*
X17412611Y-14825484D02*
X17393563Y-14815960D01*
X17393563Y-14815960D02*
X17384039Y-14806436D01*
X17384039Y-14806436D02*
X17374515Y-14787388D01*
X17374515Y-14787388D02*
X17374515Y-14730246D01*
X17374515Y-14730246D02*
X17384039Y-14711198D01*
X17384039Y-14711198D02*
X17393563Y-14701674D01*
X17393563Y-14701674D02*
X17412611Y-14692150D01*
X17412611Y-14692150D02*
X17441182Y-14692150D01*
X17441182Y-14692150D02*
X17460230Y-14701674D01*
X17460230Y-14701674D02*
X17469753Y-14711198D01*
X17469753Y-14711198D02*
X17479277Y-14730246D01*
X17479277Y-14730246D02*
X17479277Y-14787388D01*
X17479277Y-14787388D02*
X17469753Y-14806436D01*
X17469753Y-14806436D02*
X17460230Y-14815960D01*
X17460230Y-14815960D02*
X17441182Y-14825484D01*
X17441182Y-14825484D02*
X17412611Y-14825484D01*
X17593563Y-14825484D02*
X17574515Y-14815960D01*
X17574515Y-14815960D02*
X17564992Y-14796912D01*
X17564992Y-14796912D02*
X17564992Y-14625484D01*
X17745944Y-14815960D02*
X17726896Y-14825484D01*
X17726896Y-14825484D02*
X17688801Y-14825484D01*
X17688801Y-14825484D02*
X17669753Y-14815960D01*
X17669753Y-14815960D02*
X17660230Y-14796912D01*
X17660230Y-14796912D02*
X17660230Y-14720722D01*
X17660230Y-14720722D02*
X17669753Y-14701674D01*
X17669753Y-14701674D02*
X17688801Y-14692150D01*
X17688801Y-14692150D02*
X17726896Y-14692150D01*
X17726896Y-14692150D02*
X17745944Y-14701674D01*
X17745944Y-14701674D02*
X17755468Y-14720722D01*
X17755468Y-14720722D02*
X17755468Y-14739769D01*
X17755468Y-14739769D02*
X17660230Y-14758817D01*
X17831658Y-14815960D02*
X17850706Y-14825484D01*
X17850706Y-14825484D02*
X17888801Y-14825484D01*
X17888801Y-14825484D02*
X17907849Y-14815960D01*
X17907849Y-14815960D02*
X17917373Y-14796912D01*
X17917373Y-14796912D02*
X17917373Y-14787388D01*
X17917373Y-14787388D02*
X17907849Y-14768341D01*
X17907849Y-14768341D02*
X17888801Y-14758817D01*
X17888801Y-14758817D02*
X17860230Y-14758817D01*
X17860230Y-14758817D02*
X17841182Y-14749293D01*
X17841182Y-14749293D02*
X17831658Y-14730246D01*
X17831658Y-14730246D02*
X17831658Y-14720722D01*
X17831658Y-14720722D02*
X17841182Y-14701674D01*
X17841182Y-14701674D02*
X17860230Y-14692150D01*
X17860230Y-14692150D02*
X17888801Y-14692150D01*
X17888801Y-14692150D02*
X17907849Y-14701674D01*
X17984039Y-14901674D02*
X17993563Y-14892150D01*
X17993563Y-14892150D02*
X18012611Y-14863579D01*
X18012611Y-14863579D02*
X18022134Y-14844531D01*
X18022134Y-14844531D02*
X18031658Y-14815960D01*
X18031658Y-14815960D02*
X18041182Y-14768341D01*
X18041182Y-14768341D02*
X18041182Y-14730246D01*
X18041182Y-14730246D02*
X18031658Y-14682627D01*
X18031658Y-14682627D02*
X18022134Y-14654055D01*
X18022134Y-14654055D02*
X18012611Y-14635008D01*
X18012611Y-14635008D02*
X17993563Y-14606436D01*
X17993563Y-14606436D02*
X17984039Y-14596912D01*
D12*
X13018500Y-14998000D02*
G75*
G02*
X12978500Y-14998000I-20000J0D01*
G01*
X12978500Y-14998000D02*
G75*
G02*
X13018500Y-14998000I20000J0D01*
G01*
D11*
X13317372Y-14889484D02*
X13336420Y-14889484D01*
X13336420Y-14889484D02*
X13355467Y-14899008D01*
X13355467Y-14899008D02*
X13364991Y-14908531D01*
X13364991Y-14908531D02*
X13374515Y-14927579D01*
X13374515Y-14927579D02*
X13384039Y-14965674D01*
X13384039Y-14965674D02*
X13384039Y-15013293D01*
X13384039Y-15013293D02*
X13374515Y-15051388D01*
X13374515Y-15051388D02*
X13364991Y-15070436D01*
X13364991Y-15070436D02*
X13355467Y-15079960D01*
X13355467Y-15079960D02*
X13336420Y-15089484D01*
X13336420Y-15089484D02*
X13317372Y-15089484D01*
X13317372Y-15089484D02*
X13298324Y-15079960D01*
X13298324Y-15079960D02*
X13288801Y-15070436D01*
X13288801Y-15070436D02*
X13279277Y-15051388D01*
X13279277Y-15051388D02*
X13269753Y-15013293D01*
X13269753Y-15013293D02*
X13269753Y-14965674D01*
X13269753Y-14965674D02*
X13279277Y-14927579D01*
X13279277Y-14927579D02*
X13288801Y-14908531D01*
X13288801Y-14908531D02*
X13298324Y-14899008D01*
X13298324Y-14899008D02*
X13317372Y-14889484D01*
X13469753Y-15070436D02*
X13479277Y-15079960D01*
X13479277Y-15079960D02*
X13469753Y-15089484D01*
X13469753Y-15089484D02*
X13460229Y-15079960D01*
X13460229Y-15079960D02*
X13469753Y-15070436D01*
X13469753Y-15070436D02*
X13469753Y-15089484D01*
X13650705Y-14956150D02*
X13650705Y-15089484D01*
X13603086Y-14879960D02*
X13555467Y-15022817D01*
X13555467Y-15022817D02*
X13679277Y-15022817D01*
X13793562Y-14889484D02*
X13812610Y-14889484D01*
X13812610Y-14889484D02*
X13831658Y-14899008D01*
X13831658Y-14899008D02*
X13841182Y-14908531D01*
X13841182Y-14908531D02*
X13850705Y-14927579D01*
X13850705Y-14927579D02*
X13860229Y-14965674D01*
X13860229Y-14965674D02*
X13860229Y-15013293D01*
X13860229Y-15013293D02*
X13850705Y-15051388D01*
X13850705Y-15051388D02*
X13841182Y-15070436D01*
X13841182Y-15070436D02*
X13831658Y-15079960D01*
X13831658Y-15079960D02*
X13812610Y-15089484D01*
X13812610Y-15089484D02*
X13793562Y-15089484D01*
X13793562Y-15089484D02*
X13774515Y-15079960D01*
X13774515Y-15079960D02*
X13764991Y-15070436D01*
X13764991Y-15070436D02*
X13755467Y-15051388D01*
X13755467Y-15051388D02*
X13745943Y-15013293D01*
X13745943Y-15013293D02*
X13745943Y-14965674D01*
X13745943Y-14965674D02*
X13755467Y-14927579D01*
X13755467Y-14927579D02*
X13764991Y-14908531D01*
X13764991Y-14908531D02*
X13774515Y-14899008D01*
X13774515Y-14899008D02*
X13793562Y-14889484D01*
X13984039Y-14889484D02*
X14003086Y-14889484D01*
X14003086Y-14889484D02*
X14022134Y-14899008D01*
X14022134Y-14899008D02*
X14031658Y-14908531D01*
X14031658Y-14908531D02*
X14041182Y-14927579D01*
X14041182Y-14927579D02*
X14050705Y-14965674D01*
X14050705Y-14965674D02*
X14050705Y-15013293D01*
X14050705Y-15013293D02*
X14041182Y-15051388D01*
X14041182Y-15051388D02*
X14031658Y-15070436D01*
X14031658Y-15070436D02*
X14022134Y-15079960D01*
X14022134Y-15079960D02*
X14003086Y-15089484D01*
X14003086Y-15089484D02*
X13984039Y-15089484D01*
X13984039Y-15089484D02*
X13964991Y-15079960D01*
X13964991Y-15079960D02*
X13955467Y-15070436D01*
X13955467Y-15070436D02*
X13945943Y-15051388D01*
X13945943Y-15051388D02*
X13936420Y-15013293D01*
X13936420Y-15013293D02*
X13936420Y-14965674D01*
X13936420Y-14965674D02*
X13945943Y-14927579D01*
X13945943Y-14927579D02*
X13955467Y-14908531D01*
X13955467Y-14908531D02*
X13964991Y-14899008D01*
X13964991Y-14899008D02*
X13984039Y-14889484D01*
X14136420Y-15089484D02*
X14136420Y-14956150D01*
X14136420Y-14975198D02*
X14145943Y-14965674D01*
X14145943Y-14965674D02*
X14164991Y-14956150D01*
X14164991Y-14956150D02*
X14193563Y-14956150D01*
X14193563Y-14956150D02*
X14212610Y-14965674D01*
X14212610Y-14965674D02*
X14222134Y-14984722D01*
X14222134Y-14984722D02*
X14222134Y-15089484D01*
X14222134Y-14984722D02*
X14231658Y-14965674D01*
X14231658Y-14965674D02*
X14250705Y-14956150D01*
X14250705Y-14956150D02*
X14279277Y-14956150D01*
X14279277Y-14956150D02*
X14298324Y-14965674D01*
X14298324Y-14965674D02*
X14307848Y-14984722D01*
X14307848Y-14984722D02*
X14307848Y-15089484D01*
X14403086Y-15089484D02*
X14403086Y-14956150D01*
X14403086Y-14975198D02*
X14412610Y-14965674D01*
X14412610Y-14965674D02*
X14431658Y-14956150D01*
X14431658Y-14956150D02*
X14460229Y-14956150D01*
X14460229Y-14956150D02*
X14479277Y-14965674D01*
X14479277Y-14965674D02*
X14488801Y-14984722D01*
X14488801Y-14984722D02*
X14488801Y-15089484D01*
X14488801Y-14984722D02*
X14498324Y-14965674D01*
X14498324Y-14965674D02*
X14517372Y-14956150D01*
X14517372Y-14956150D02*
X14545943Y-14956150D01*
X14545943Y-14956150D02*
X14564991Y-14965674D01*
X14564991Y-14965674D02*
X14574515Y-14984722D01*
X14574515Y-14984722D02*
X14574515Y-15089484D01*
X14964991Y-14879960D02*
X14793563Y-15137103D01*
X15222134Y-14889484D02*
X15241182Y-14889484D01*
X15241182Y-14889484D02*
X15260229Y-14899008D01*
X15260229Y-14899008D02*
X15269753Y-14908531D01*
X15269753Y-14908531D02*
X15279277Y-14927579D01*
X15279277Y-14927579D02*
X15288801Y-14965674D01*
X15288801Y-14965674D02*
X15288801Y-15013293D01*
X15288801Y-15013293D02*
X15279277Y-15051388D01*
X15279277Y-15051388D02*
X15269753Y-15070436D01*
X15269753Y-15070436D02*
X15260229Y-15079960D01*
X15260229Y-15079960D02*
X15241182Y-15089484D01*
X15241182Y-15089484D02*
X15222134Y-15089484D01*
X15222134Y-15089484D02*
X15203086Y-15079960D01*
X15203086Y-15079960D02*
X15193563Y-15070436D01*
X15193563Y-15070436D02*
X15184039Y-15051388D01*
X15184039Y-15051388D02*
X15174515Y-15013293D01*
X15174515Y-15013293D02*
X15174515Y-14965674D01*
X15174515Y-14965674D02*
X15184039Y-14927579D01*
X15184039Y-14927579D02*
X15193563Y-14908531D01*
X15193563Y-14908531D02*
X15203086Y-14899008D01*
X15203086Y-14899008D02*
X15222134Y-14889484D01*
X15374515Y-15070436D02*
X15384039Y-15079960D01*
X15384039Y-15079960D02*
X15374515Y-15089484D01*
X15374515Y-15089484D02*
X15364991Y-15079960D01*
X15364991Y-15079960D02*
X15374515Y-15070436D01*
X15374515Y-15070436D02*
X15374515Y-15089484D01*
X15507848Y-14889484D02*
X15526896Y-14889484D01*
X15526896Y-14889484D02*
X15545944Y-14899008D01*
X15545944Y-14899008D02*
X15555467Y-14908531D01*
X15555467Y-14908531D02*
X15564991Y-14927579D01*
X15564991Y-14927579D02*
X15574515Y-14965674D01*
X15574515Y-14965674D02*
X15574515Y-15013293D01*
X15574515Y-15013293D02*
X15564991Y-15051388D01*
X15564991Y-15051388D02*
X15555467Y-15070436D01*
X15555467Y-15070436D02*
X15545944Y-15079960D01*
X15545944Y-15079960D02*
X15526896Y-15089484D01*
X15526896Y-15089484D02*
X15507848Y-15089484D01*
X15507848Y-15089484D02*
X15488801Y-15079960D01*
X15488801Y-15079960D02*
X15479277Y-15070436D01*
X15479277Y-15070436D02*
X15469753Y-15051388D01*
X15469753Y-15051388D02*
X15460229Y-15013293D01*
X15460229Y-15013293D02*
X15460229Y-14965674D01*
X15460229Y-14965674D02*
X15469753Y-14927579D01*
X15469753Y-14927579D02*
X15479277Y-14908531D01*
X15479277Y-14908531D02*
X15488801Y-14899008D01*
X15488801Y-14899008D02*
X15507848Y-14889484D01*
X15764991Y-15089484D02*
X15650706Y-15089484D01*
X15707848Y-15089484D02*
X15707848Y-14889484D01*
X15707848Y-14889484D02*
X15688801Y-14918055D01*
X15688801Y-14918055D02*
X15669753Y-14937103D01*
X15669753Y-14937103D02*
X15650706Y-14946627D01*
X15945944Y-14889484D02*
X15850706Y-14889484D01*
X15850706Y-14889484D02*
X15841182Y-14984722D01*
X15841182Y-14984722D02*
X15850706Y-14975198D01*
X15850706Y-14975198D02*
X15869753Y-14965674D01*
X15869753Y-14965674D02*
X15917372Y-14965674D01*
X15917372Y-14965674D02*
X15936420Y-14975198D01*
X15936420Y-14975198D02*
X15945944Y-14984722D01*
X15945944Y-14984722D02*
X15955467Y-15003769D01*
X15955467Y-15003769D02*
X15955467Y-15051388D01*
X15955467Y-15051388D02*
X15945944Y-15070436D01*
X15945944Y-15070436D02*
X15936420Y-15079960D01*
X15936420Y-15079960D02*
X15917372Y-15089484D01*
X15917372Y-15089484D02*
X15869753Y-15089484D01*
X15869753Y-15089484D02*
X15850706Y-15079960D01*
X15850706Y-15079960D02*
X15841182Y-15070436D01*
X16022134Y-14889484D02*
X16155467Y-14889484D01*
X16155467Y-14889484D02*
X16069753Y-15089484D01*
X16222134Y-14889484D02*
X16222134Y-14927579D01*
X16298325Y-14889484D02*
X16298325Y-14927579D01*
X16593563Y-15165674D02*
X16584039Y-15156150D01*
X16584039Y-15156150D02*
X16564991Y-15127579D01*
X16564991Y-15127579D02*
X16555468Y-15108531D01*
X16555468Y-15108531D02*
X16545944Y-15079960D01*
X16545944Y-15079960D02*
X16536420Y-15032341D01*
X16536420Y-15032341D02*
X16536420Y-14994246D01*
X16536420Y-14994246D02*
X16545944Y-14946627D01*
X16545944Y-14946627D02*
X16555468Y-14918055D01*
X16555468Y-14918055D02*
X16564991Y-14899008D01*
X16564991Y-14899008D02*
X16584039Y-14870436D01*
X16584039Y-14870436D02*
X16593563Y-14860912D01*
X16650706Y-14889484D02*
X16784039Y-14889484D01*
X16784039Y-14889484D02*
X16698325Y-15089484D01*
X17012611Y-15089484D02*
X17012611Y-14889484D01*
X17098325Y-15089484D02*
X17098325Y-14984722D01*
X17098325Y-14984722D02*
X17088801Y-14965674D01*
X17088801Y-14965674D02*
X17069753Y-14956150D01*
X17069753Y-14956150D02*
X17041182Y-14956150D01*
X17041182Y-14956150D02*
X17022134Y-14965674D01*
X17022134Y-14965674D02*
X17012611Y-14975198D01*
X17222134Y-15089484D02*
X17203087Y-15079960D01*
X17203087Y-15079960D02*
X17193563Y-15070436D01*
X17193563Y-15070436D02*
X17184039Y-15051388D01*
X17184039Y-15051388D02*
X17184039Y-14994246D01*
X17184039Y-14994246D02*
X17193563Y-14975198D01*
X17193563Y-14975198D02*
X17203087Y-14965674D01*
X17203087Y-14965674D02*
X17222134Y-14956150D01*
X17222134Y-14956150D02*
X17250706Y-14956150D01*
X17250706Y-14956150D02*
X17269753Y-14965674D01*
X17269753Y-14965674D02*
X17279277Y-14975198D01*
X17279277Y-14975198D02*
X17288801Y-14994246D01*
X17288801Y-14994246D02*
X17288801Y-15051388D01*
X17288801Y-15051388D02*
X17279277Y-15070436D01*
X17279277Y-15070436D02*
X17269753Y-15079960D01*
X17269753Y-15079960D02*
X17250706Y-15089484D01*
X17250706Y-15089484D02*
X17222134Y-15089484D01*
X17403087Y-15089484D02*
X17384039Y-15079960D01*
X17384039Y-15079960D02*
X17374515Y-15060912D01*
X17374515Y-15060912D02*
X17374515Y-14889484D01*
X17555468Y-15079960D02*
X17536420Y-15089484D01*
X17536420Y-15089484D02*
X17498325Y-15089484D01*
X17498325Y-15089484D02*
X17479277Y-15079960D01*
X17479277Y-15079960D02*
X17469753Y-15060912D01*
X17469753Y-15060912D02*
X17469753Y-14984722D01*
X17469753Y-14984722D02*
X17479277Y-14965674D01*
X17479277Y-14965674D02*
X17498325Y-14956150D01*
X17498325Y-14956150D02*
X17536420Y-14956150D01*
X17536420Y-14956150D02*
X17555468Y-14965674D01*
X17555468Y-14965674D02*
X17564992Y-14984722D01*
X17564992Y-14984722D02*
X17564992Y-15003769D01*
X17564992Y-15003769D02*
X17469753Y-15022817D01*
X17641182Y-15079960D02*
X17660230Y-15089484D01*
X17660230Y-15089484D02*
X17698325Y-15089484D01*
X17698325Y-15089484D02*
X17717373Y-15079960D01*
X17717373Y-15079960D02*
X17726896Y-15060912D01*
X17726896Y-15060912D02*
X17726896Y-15051388D01*
X17726896Y-15051388D02*
X17717373Y-15032341D01*
X17717373Y-15032341D02*
X17698325Y-15022817D01*
X17698325Y-15022817D02*
X17669753Y-15022817D01*
X17669753Y-15022817D02*
X17650706Y-15013293D01*
X17650706Y-15013293D02*
X17641182Y-14994246D01*
X17641182Y-14994246D02*
X17641182Y-14984722D01*
X17641182Y-14984722D02*
X17650706Y-14965674D01*
X17650706Y-14965674D02*
X17669753Y-14956150D01*
X17669753Y-14956150D02*
X17698325Y-14956150D01*
X17698325Y-14956150D02*
X17717373Y-14965674D01*
X17793563Y-15165674D02*
X17803087Y-15156150D01*
X17803087Y-15156150D02*
X17822134Y-15127579D01*
X17822134Y-15127579D02*
X17831658Y-15108531D01*
X17831658Y-15108531D02*
X17841182Y-15079960D01*
X17841182Y-15079960D02*
X17850706Y-15032341D01*
X17850706Y-15032341D02*
X17850706Y-14994246D01*
X17850706Y-14994246D02*
X17841182Y-14946627D01*
X17841182Y-14946627D02*
X17831658Y-14918055D01*
X17831658Y-14918055D02*
X17822134Y-14899008D01*
X17822134Y-14899008D02*
X17803087Y-14870436D01*
X17803087Y-14870436D02*
X17793563Y-14860912D01*
M02*
